<?xml version="1.0" encoding="UTF-8" standalone="no"?>
<!DOCTYPE svg PUBLIC "-//W3C//DTD SVG 1.1//EN" "http://www.w3.org/Graphics/SVG/1.1/DTD/svg11.dtd">
<svg xmlns="http://www.w3.org/2000/svg" version="1.1" viewBox="0.00 0.00 900.00 900.00">
<g stroke-width="2.00" fill="none" stroke-linecap="butt">
<path stroke="#75322d" vector-effect="non-scaling-stroke" d="
  M 456.20 214.07
  C 440.90 212.74 426.19 214.13 409.96 217.10"
/>
<path stroke="#59294e" vector-effect="non-scaling-stroke" d="
  M 409.96 217.10
  Q 382.52 222.54 358.19 236.18"
/>
<path stroke="#36236f" vector-effect="non-scaling-stroke" d="
  M 358.19 236.18
  Q 336.78 248.04 319.67 265.41"
/>
<path stroke="#33306f" vector-effect="non-scaling-stroke" d="
  M 319.67 265.41
  Q 285.51 300.05 274.64 347.55
  Q 273.61 352.04 272.70 356.55
  C 271.35 363.23 271.18 370.52 270.30 377.50
  Q 269.72 382.04 270.33 397.49"
/>
<path stroke="#2c436f" vector-effect="non-scaling-stroke" d="
  M 270.33 397.49
  Q 269.93 403.72 270.08 406.50
  C 270.35 411.67 265.50 412.67 262.33 415.68
  Q 257.71 420.05 255.24 426.00
  C 254.32 428.22 253.32 433.06 250.64 433.69
  Q 239.59 436.30 230.96 441.60"
/>
<path stroke="#055f6c" vector-effect="non-scaling-stroke" d="
  M 230.96 441.60
  Q 225.01 445.40 221.05 449.56
  Q 205.31 466.11 204.60 489.50
  Q 204.20 502.62 204.37 515.75
  C 204.69 540.57 217.28 562.10 241.03 571.16"
/>
<path stroke="#2c436f" vector-effect="non-scaling-stroke" d="
  M 241.03 571.16
  Q 245.45 573.19 251.01 574.17
  C 253.16 574.55 253.88 578.74 254.54 580.55"
/>
<path stroke="#0c0621" vector-effect="non-scaling-stroke" d="
  M 254.54 580.55
  Q 254.04 580.69 253.49 580.63
  Q 253.37 580.61 253.36 580.49
  Q 253.36 580.36 253.36 580.23
  Q 253.35 580.02 253.15 579.97
  Q 252.06 579.68 251.47 580.38
  Q 251.15 580.76 251.11 581.70
  Q 251.02 584.08 249.87 587.63
  Q 248.16 592.89 247.90 599.72
  C 247.75 603.39 248.76 607.70 248.89 611.74
  Q 249.01 615.81 252.74 622.56
  Q 252.89 622.83 252.88 623.13
  C 252.87 623.44 252.95 623.74 253.17 624.01
  Q 253.98 625.06 255.78 628.22
  Q 256.95 630.27 260.52 633.67
  C 261.57 634.68 263.11 635.55 264.24 636.72
  Q 265.76 638.31 266.95 639.02
  C 269.79 640.70 272.38 642.59 275.32 644.23
  C 277.55 645.49 279.45 647.01 281.83 647.98
  C 284.51 649.07 287.15 650.45 289.71 651.01
  Q 297.27 652.66 304.62 650.13
  C 306.35 649.54 308.36 649.32 310.17 648.40
  Q 310.59 648.18 311.06 648.28
  Q 313.92 648.90 316.25 646.83
  A 1.92 1.83 15.0 0 1 317.02 646.41
  Q 317.78 646.20 318.26 645.50
  Q 318.54 645.09 318.99 644.88
  Q 320.08 644.37 320.75 643.40
  A 2.37 2.26 -85.8 0 1 321.49 642.73
  Q 324.39 641.05 326.51 638.51
  Q 326.81 638.14 327.27 638.01
  Q 329.95 637.27 331.12 634.78
  A 1.60 1.58 -87.8 0 1 331.97 633.98
  Q 333.23 633.49 333.66 632.27
  A 1.01 0.98 -9.6 0 1 334.02 631.78
  L 337.39 629.33
  A 1.35 1.33 -8.2 0 0 337.86 628.71
  Q 338.72 626.32 340.61 624.64
  A 1.17 1.16 -16.6 0 0 341.01 623.91
  Q 341.12 623.21 341.44 622.67
  Q 344.45 617.62 347.02 612.33
  C 347.46 611.44 347.55 610.27 347.98 609.27
  Q 348.16 608.86 348.13 608.41
  C 347.98 606.30 349.11 604.88 349.36 603.18
  Q 350.62 594.24 349.63 588.00
  Q 348.95 583.75 345.98 577.04
  C 345.20 575.27 343.61 574.23 342.65 572.47
  Q 341.29 569.96 340.43 568.96
  Q 339.18 567.52 338.03 566.01
  Q 336.87 564.49 335.33 563.43
  Q 332.00 561.13 330.99 559.87
  Q 329.20 557.62 327.77 556.54
  C 326.50 555.58 324.76 555.81 323.15 555.35
  A 1.02 1.01 -2.2 0 1 322.48 554.74
  Q 321.84 553.04 321.89 551.30"
/>
<path stroke="#36236f" vector-effect="non-scaling-stroke" d="
  M 321.89 551.30
  Q 321.52 544.14 321.52 537.00
  Q 321.51 463.43 321.51 389.86
  C 321.51 381.04 321.87 370.59 323.22 363.50
  Q 329.73 329.27 353.25 303.79"
/>
<path stroke="#59294e" vector-effect="non-scaling-stroke" d="
  M 353.25 303.79
  Q 379.78 275.65 417.71 267.15"
/>
<path stroke="#75322d" vector-effect="non-scaling-stroke" d="
  M 417.71 267.15
  L 432.35 264.93"
/>
<path stroke="#0c0201" vector-effect="non-scaling-stroke" d="
  M 432.35 264.93
  Q 432.57 266.79 431.84 267.49
  C 427.66 271.50 427.40 279.09 429.01 284.22
  Q 430.64 289.43 431.57 294.77
  Q 431.66 295.25 431.93 295.64
  Q 433.25 297.50 434.47 299.41
  C 436.68 302.86 439.37 305.50 442.24 308.20
  Q 442.60 308.54 443.18 308.80
  C 444.74 309.51 445.98 310.49 447.51 311.14
  C 451.10 312.68 455.16 314.79 458.15 317.31
  Q 459.37 318.33 460.65 319.27
  Q 461.06 319.58 461.29 320.03
  Q 462.92 323.24 465.26 325.93
  Q 465.52 326.23 465.90 326.35
  Q 466.58 326.56 466.61 327.25
  C 467.85 328.92 469.75 329.96 471.04 331.21
  C 472.99 333.10 476.67 335.93 479.47 336.28
  Q 480.92 336.47 481.97 336.76
  Q 493.03 339.80 506.25 339.51
  C 513.07 339.36 518.52 339.00 524.36 336.61
  C 526.89 335.58 530.12 335.19 532.24 333.66
  Q 533.71 332.60 534.92 331.27
  Q 537.23 328.73 538.63 327.80
  Q 540.94 326.26 543.38 324.86
  Q 543.85 324.60 544.05 324.10
  Q 544.59 322.78 546.04 322.47
  A 0.66 0.66 0.0 0 0 546.47 321.49
  Q 545.65 320.10 546.38 318.15"
/>
<path stroke="#3b0f0b" vector-effect="non-scaling-stroke" d="
  M 546.38 318.15
  L 551.78 327.05"
/>
<path stroke="#200604" vector-effect="non-scaling-stroke" d="
  M 551.78 327.05
  Q 562.22 345.41 565.21 366.05
  Q 566.20 372.87 566.40 385.99
  Q 566.67 404.20 566.47 422.70
  A 0.94 0.94 0.0 0 0 567.36 423.65
  Q 567.91 423.69 568.26 423.48
  A 0.39 0.38 -20.5 0 1 568.84 423.74
  Q 569.01 424.83 568.74 426.09"
/>
<path stroke="#055f6c" vector-effect="non-scaling-stroke" d="
  M 568.74 426.09
  Q 566.72 431.93 566.49 440.75
  Q 566.17 452.50 566.19 464.25
  Q 566.26 517.50 566.30 570.75
  Q 566.32 586.12 580.61 595.64"
/>
<path stroke="#2c436f" vector-effect="non-scaling-stroke" d="
  M 580.61 595.64
  Q 584.18 597.67 587.50 598.54
  Q 600.20 601.84 613.96 598.82"
/>
<path stroke="#36236f" vector-effect="non-scaling-stroke" d="
  M 613.96 598.82
  C 625.07 595.59 631.53 587.91 634.74 577.19
  C 635.83 573.57 638.77 574.01 641.81 573.29"
/>
<path stroke="#59294e" vector-effect="non-scaling-stroke" d="
  M 641.81 573.29
  Q 653.73 569.63 663.35 561.90"
/>
<path stroke="#6b2e3c" vector-effect="non-scaling-stroke" d="
  M 663.35 561.90
  Q 677.92 549.03 682.12 530.93
  C 684.55 520.43 683.64 505.68 683.82 493.51
  Q 684.34 459.16 655.79 440.68"
/>
<path stroke="#59294e" vector-effect="non-scaling-stroke" d="
  M 655.79 440.68
  L 644.47 435.62"
/>
<path stroke="#36236f" vector-effect="non-scaling-stroke" d="
  M 644.47 435.62
  Q 641.50 434.50 637.71 433.53
  C 635.04 432.86 634.46 430.48 633.51 427.79
  Q 628.65 414.12 614.93 409.28"
/>
<path stroke="#160604" vector-effect="non-scaling-stroke" d="
  M 614.93 409.28
  L 614.29 407.90
  Q 614.09 407.47 614.38 407.09
  Q 614.90 406.40 615.93 406.78
  A 1.47 1.47 0.0 0 0 617.85 405.82
  Q 618.26 404.46 618.62 402.84
  Q 618.85 401.79 618.87 400.64
  C 619.03 392.12 618.92 383.87 617.64 376.07
  C 617.00 372.16 616.98 368.03 616.38 364.00
  Q 615.33 356.96 614.03 349.97
  C 608.47 320.21 593.80 293.48 574.08 270.68
  Q 572.48 268.83 568.14 264.74"
/>
<path stroke="#3b0f0b" vector-effect="non-scaling-stroke" d="
  M 568.14 264.74
  L 555.60 253.42"
/>
<path stroke="#200604" vector-effect="non-scaling-stroke" d="
  M 555.60 253.42
  Q 556.31 250.51 554.17 247.45
  Q 553.99 247.19 553.36 246.69
  C 552.60 246.08 552.43 244.96 552.02 244.34
  Q 548.35 238.85 545.31 233.00
  Q 543.69 229.88 541.86 227.64
  C 538.72 223.78 536.51 221.03 531.49 218.26
  Q 531.14 218.06 530.75 217.31
  A 1.34 1.34 0.0 0 0 530.15 216.71
  Q 527.66 215.46 525.20 214.18
  C 522.43 212.74 518.71 209.92 514.55 208.87
  A 0.26 0.25 20.1 0 0 514.26 209.00
  Q 514.20 209.12 514.13 209.25
  Q 514.11 209.28 514.07 209.19
  Q 513.88 208.75 513.38 208.87
  C 507.19 207.05 498.33 205.81 491.35 207.37
  Q 488.19 208.08 488.10 208.09
  Q 480.78 209.16 477.89 210.41
  C 473.86 212.15 469.99 210.50 466.34 213.49
  Q 466.14 213.66 466.13 213.92
  Q 466.13 214.08 466.14 214.26
  Q 466.16 214.69 465.73 214.66
  L 456.20 214.07"
/>
<path stroke="#5b150f" vector-effect="non-scaling-stroke" d="
  M 555.60 253.42
  L 540.98 242.80"
/>
<path stroke="#953831" vector-effect="non-scaling-stroke" d="
  M 540.98 242.80
  C 519.23 228.03 492.86 218.82 466.93 215.30
  C 464.17 214.93 459.78 214.85 456.20 214.07"
/>
<path stroke="#b04038" vector-effect="non-scaling-stroke" d="
  M 540.98 242.80
  Q 541.47 245.97 543.26 248.84
  Q 543.53 249.28 543.55 249.78
  Q 543.71 254.32 544.60 258.76
  Q 545.19 261.74 544.67 269.41"
/>
<path stroke="#953831" vector-effect="non-scaling-stroke" d="
  M 544.67 269.41
  Q 531.95 258.55 516.25 250.52"
/>
<path stroke="#d04c43" vector-effect="non-scaling-stroke" d="
  M 516.25 250.52
  Q 502.64 243.23 486.17 238.76"
/>
<path stroke="#953831" vector-effect="non-scaling-stroke" d="
  M 486.17 238.76
  Q 476.00 235.97 469.75 235.03
  Q 461.71 233.81 448.52 232.96"
/>
<path stroke="#75322d" vector-effect="non-scaling-stroke" d="
  M 448.52 232.96
  Q 442.06 232.55 435.00 233.21
  Q 420.72 234.56 408.76 236.99"
/>
<path stroke="#ce5b7b" vector-effect="non-scaling-stroke" d="
  M 408.76 236.99
  L 409.77 231.73
  Q 409.83 231.43 409.70 231.15
  Q 409.63 230.97 409.65 230.75
  Q 410.37 224.11 409.96 217.10"
/>
<path stroke="#51150f" vector-effect="non-scaling-stroke" d="
  M 568.14 264.74
  Q 569.81 272.88 569.36 279.25
  Q 568.98 284.67 566.23 291.76"
/>
<path stroke="#3b0f0b" vector-effect="non-scaling-stroke" d="
  M 566.23 291.76
  L 561.59 286.14"
/>
<path stroke="#5b150f" vector-effect="non-scaling-stroke" d="
  M 561.59 286.14
  Q 553.57 276.99 544.67 269.41"
/>
<path stroke="#7a201a" vector-effect="non-scaling-stroke" d="
  M 486.17 238.76
  Q 484.91 240.47 483.05 240.94
  Q 482.57 241.06 482.18 241.36
  C 480.92 242.34 480.39 243.14 478.77 243.73
  Q 474.97 245.12 474.77 248.42"
/>
<path stroke="#953831" vector-effect="non-scaling-stroke" d="
  M 474.77 248.42
  Q 458.23 244.88 440.67 245.25"
/>
<path stroke="#200604" vector-effect="non-scaling-stroke" d="
  M 561.59 286.14
  Q 560.50 286.13 560.61 287.00
  Q 560.79 288.47 559.79 289.03
  Q 559.36 289.26 559.10 289.68
  Q 558.50 290.67 557.57 291.40
  A 1.14 1.13 70.9 0 0 557.14 292.29
  Q 557.13 294.70 557.89 296.98
  A 0.76 0.76 0.0 0 1 557.67 297.78
  L 556.28 298.97"
/>
<path stroke="#5b150f" vector-effect="non-scaling-stroke" d="
  M 556.28 298.97
  L 540.87 282.53"
/>
<path stroke="#7a201a" vector-effect="non-scaling-stroke" d="
  M 540.87 282.53
  Q 533.57 275.71 525.45 270.18"
/>
<path stroke="#7a201a" vector-effect="non-scaling-stroke" d="
  M 516.25 250.52
  Q 516.59 255.81 519.17 260.74
  Q 520.16 262.64 520.23 266.88"
/>
<path stroke="#d04c43" vector-effect="non-scaling-stroke" d="
  M 520.23 266.88
  Q 509.15 259.81 500.12 256.13
  Q 489.46 251.78 474.77 248.42"
/>
<path stroke="#200604" vector-effect="non-scaling-stroke" d="
  M 448.52 232.96
  Q 443.92 234.46 443.45 237.41
  Q 443.38 237.92 443.01 238.28
  Q 439.68 241.65 440.67 245.25"
/>
<path stroke="#75322d" vector-effect="non-scaling-stroke" d="
  M 440.67 245.25
  Q 429.33 245.26 418.23 247.42"
/>
<path stroke="#59294e" vector-effect="non-scaling-stroke" d="
  M 418.23 247.42
  C 390.74 252.41 364.88 265.34 344.92 284.95"
/>
<path stroke="#36236f" vector-effect="non-scaling-stroke" d="
  M 344.92 284.95
  C 321.20 307.82 306.80 337.15 303.05 370.00
  Q 302.05 378.69 302.34 408.45
  Q 302.35 409.24 302.03 409.46
  Q 301.59 409.76 300.70 409.33"
/>
<path stroke="#33306f" vector-effect="non-scaling-stroke" d="
  M 300.70 409.33
  L 290.35 408.28
  A 1.36 1.35 -87.2 0 1 289.13 406.93
  C 289.14 395.61 288.88 384.46 289.94 373.40
  Q 291.05 361.77 291.71 358.25
  Q 299.90 314.32 330.19 282.16"
/>
<path stroke="#36236f" vector-effect="non-scaling-stroke" d="
  M 330.19 282.16
  Q 345.12 266.23 362.53 255.83"
/>
<path stroke="#59294e" vector-effect="non-scaling-stroke" d="
  M 408.76 236.99
  Q 384.70 242.53 362.53 255.83"
/>
<path stroke="#8f4cbd" vector-effect="non-scaling-stroke" d="
  M 362.53 255.83
  Q 359.83 252.19 360.03 245.87
  Q 360.04 245.39 359.81 244.97
  Q 359.49 244.40 359.34 243.63
  Q 359.26 243.20 359.02 242.84
  Q 357.02 239.89 358.19 236.18"
/>
<path stroke="#2c436f" vector-effect="non-scaling-stroke" d="
  M 598.84 408.26
  Q 588.23 407.83 580.46 412.52"
/>
<path stroke="#200604" vector-effect="non-scaling-stroke" d="
  M 580.46 412.52
  Q 579.89 412.35 580.20 411.47
  Q 580.36 411.02 580.79 410.67
  C 584.31 407.85 585.62 408.69 585.67 403.25
  Q 585.78 390.24 585.39 377.23
  Q 585.05 365.70 583.33 357.39
  Q 577.35 328.49 560.06 303.97"
/>
<path stroke="#4c2973" vector-effect="non-scaling-stroke" d="
  M 614.93 409.28
  L 611.46 408.67"
/>
<path stroke="#414973" vector-effect="non-scaling-stroke" d="
  M 611.46 408.67
  L 598.84 408.26"
/>
<path stroke="#160604" vector-effect="non-scaling-stroke" d="
  M 598.84 408.26
  Q 598.79 405.00 598.55 401.75
  C 597.84 392.31 598.34 382.65 598.09 373.16
  C 597.97 368.61 597.19 364.12 596.54 359.59
  C 593.26 336.64 583.98 316.46 570.48 297.64
  Q 567.94 294.09 566.23 291.76"
/>
<path stroke="#953831" vector-effect="non-scaling-stroke" d="
  M 520.23 266.88
  L 525.45 270.18"
/>
<path stroke="#d04c43" vector-effect="non-scaling-stroke" d="
  M 525.45 270.18
  Q 524.65 275.84 522.32 283.73
  C 521.59 286.21 520.79 286.82 519.47 288.54
  Q 519.14 288.97 518.40 288.86"
/>
<path stroke="#b04038" vector-effect="non-scaling-stroke" d="
  M 518.40 288.86
  L 517.59 288.19"
/>
<path stroke="#d04c43" vector-effect="non-scaling-stroke" d="
  M 517.59 288.19
  C 509.46 282.02 502.69 278.99 492.08 274.00
  C 491.16 273.57 490.09 273.38 489.06 272.95
  Q 479.10 268.81 468.41 266.61"
/>
<path stroke="#b04038" vector-effect="non-scaling-stroke" d="
  M 468.41 266.61
  L 453.07 264.50"
/>
<path stroke="#953831" vector-effect="non-scaling-stroke" d="
  M 453.07 264.50
  L 435.02 264.64"
/>
<path stroke="#81332e" vector-effect="non-scaling-stroke" d="
  M 435.02 264.64
  L 432.35 264.93"
/>
<path stroke="#ce5b7b" vector-effect="non-scaling-stroke" d="
  M 417.71 267.15
  L 418.23 247.42"
/>
<path stroke="#3b0f0b" vector-effect="non-scaling-stroke" d="
  M 556.28 298.97
  L 560.06 303.97"
/>
<path stroke="#5b150f" vector-effect="non-scaling-stroke" d="
  M 560.06 303.97
  L 557.85 313.02
  A 3.39 1.21 -78.7 0 1 557.72 313.47
  L 555.25 320.50
  A 1.60 0.25 87.6 0 0 555.14 321.47
  Q 555.12 322.74 553.77 323.92
  Q 552.74 324.82 552.64 326.85
  Q 552.62 327.38 552.13 327.19
  L 551.78 327.05"
/>
<path stroke="#962921" vector-effect="non-scaling-stroke" d="
  M 540.87 282.53
  C 541.08 287.67 539.58 291.90 537.54 297.15
  Q 537.36 297.61 537.38 298.10
  Q 537.42 298.76 536.90 299.16
  Q 536.50 299.47 536.34 299.95
  Q 535.71 301.84 534.62 303.24"
/>
<path stroke="#6953de" vector-effect="non-scaling-stroke" d="
  M 300.70 409.33
  Q 298.65 411.95 298.50 415.52
  Q 298.13 424.62 297.74 428.60"
/>
<path stroke="#33306f" vector-effect="non-scaling-stroke" d="
  M 297.74 428.60
  C 291.06 426.95 278.75 425.57 274.09 430.72"
/>
<path stroke="#5e72de" vector-effect="non-scaling-stroke" d="
  M 274.09 430.72
  Q 273.54 430.13 273.88 429.56
  Q 274.02 429.32 273.85 429.11
  Q 273.76 428.99 273.61 428.93
  Q 273.14 428.74 273.18 428.23
  Q 273.26 427.19 272.87 425.63
  Q 272.07 422.44 272.44 418.17
  Q 272.46 417.91 272.69 417.81
  Q 272.89 417.72 272.87 417.50
  Q 272.47 410.33 272.70 405.64
  Q 272.76 404.61 272.34 403.79
  Q 272.14 403.39 272.22 402.95
  Q 272.94 398.92 270.33 397.49"
/>
<path stroke="#8f4cbd" vector-effect="non-scaling-stroke" d="
  M 353.25 303.79
  Q 350.59 300.06 349.99 295.76
  Q 349.80 294.38 349.25 293.39
  Q 348.62 292.26 348.01 291.15
  Q 346.36 288.19 344.92 284.95"
/>
<path stroke="#6953de" vector-effect="non-scaling-stroke" d="
  M 330.19 282.16
  Q 328.82 281.70 328.60 279.60
  A 1.45 1.38 -71.0 0 0 328.21 278.75
  Q 325.84 276.33 324.78 273.15
  C 324.08 271.04 322.96 269.62 322.05 267.67
  Q 321.87 267.29 321.50 267.10
  Q 320.92 266.81 321.12 266.05
  Q 321.24 265.62 320.79 265.63
  Q 320.15 265.66 319.67 265.41"
/>
<path stroke="#422990" vector-effect="non-scaling-stroke" d="
  M 321.89 551.30
  L 321.51 563.56"
/>
<path stroke="#8369ea" vector-effect="non-scaling-stroke" d="
  M 321.51 563.56
  Q 320.69 563.76 320.36 562.92
  Q 320.18 562.47 319.77 562.18
  Q 316.16 559.67 311.88 558.62
  C 310.40 558.26 308.61 556.51 306.78 556.31
  Q 306.02 556.23 305.19 556.07
  A 0.69 0.69 0.0 0 0 304.47 556.39
  Q 302.58 559.43 302.58 561.75
  Q 302.57 564.08 302.36 564.81"
/>
<path stroke="#4f30a9" vector-effect="non-scaling-stroke" d="
  M 302.36 564.81
  L 302.07 557.65"
/>
<path stroke="#36236f" vector-effect="non-scaling-stroke" d="
  M 302.07 557.65
  C 302.77 519.36 302.06 481.07 302.51 442.77
  C 302.54 440.14 302.08 437.41 301.83 434.74
  Q 301.47 430.85 297.74 428.60"
/>
<path stroke="#4b4973" vector-effect="non-scaling-stroke" d="
  M 580.46 412.52
  Q 579.97 413.04 579.11 413.45"
/>
<path stroke="#256570" vector-effect="non-scaling-stroke" d="
  M 579.11 413.45
  Q 572.66 418.23 568.74 426.09"
/>
<path stroke="#6266de" vector-effect="non-scaling-stroke" d="
  M 611.46 408.67
  Q 611.69 409.34 611.44 409.91
  Q 611.23 410.39 611.55 410.81
  Q 611.73 411.05 611.77 411.35
  Q 611.78 411.43 611.71 411.39
  L 611.45 411.25
  Q 611.27 411.16 611.23 411.36
  Q 610.92 412.89 611.35 414.38
  Q 611.66 414.64 611.44 414.97
  Q 611.27 415.22 611.26 415.53
  L 611.11 428.46"
/>
<path stroke="#2c436f" vector-effect="non-scaling-stroke" d="
  M 611.11 428.46
  C 606.47 426.77 599.77 427.19 595.25 427.54
  Q 588.92 428.03 586.64 434.00"
/>
<path stroke="#31a1da" vector-effect="non-scaling-stroke" d="
  M 586.64 434.00
  C 584.45 433.04 584.41 430.88 583.30 428.97
  Q 583.06 428.56 583.06 428.07
  Q 583.16 422.35 582.10 417.51
  Q 581.52 414.87 579.11 413.45"
/>
<path stroke="#8f4cbd" vector-effect="non-scaling-stroke" d="
  M 644.47 435.62
  Q 643.39 440.76 644.21 446.01
  C 644.39 447.17 644.00 448.28 644.15 449.52
  Q 644.18 449.75 643.99 449.88
  Q 643.88 449.96 643.79 450.06
  Q 643.67 450.20 643.65 450.49
  Q 643.53 453.17 643.91 456.06"
/>
<path stroke="#36236f" vector-effect="non-scaling-stroke" d="
  M 643.91 456.06
  L 637.93 453.53
  Q 636.36 452.86 635.83 454.49
  Q 635.60 455.17 635.60 456.75
  Q 635.45 500.00 635.58 543.25
  Q 635.60 548.72 635.79 553.95
  A 0.87 0.87 0.0 0 0 636.94 554.74
  L 641.31 553.21"
/>
<path stroke="#8f4cbd" vector-effect="non-scaling-stroke" d="
  M 641.31 553.21
  Q 642.53 559.94 641.83 566.66
  A 2.10 0.10 -85.3 0 1 641.67 567.90
  Q 641.13 570.54 641.81 573.29"
/>
<path stroke="#6266de" vector-effect="non-scaling-stroke" d="
  M 613.96 598.82
  L 614.28 597.70
  Q 614.35 597.43 614.24 597.18
  Q 613.99 596.61 614.00 595.99
  C 614.13 591.40 614.45 586.54 613.90 581.98
  C 613.70 580.33 614.52 579.58 613.77 577.65"
/>
<path stroke="#36236f" vector-effect="non-scaling-stroke" d="
  M 613.77 577.65
  Q 616.66 573.69 616.59 567.50
  Q 615.94 515.75 616.51 441.61
  C 616.55 436.68 616.04 431.42 611.11 428.46"
/>
<path stroke="#962921" vector-effect="non-scaling-stroke" d="
  M 468.41 266.61
  C 468.28 271.93 469.81 275.16 471.61 279.54
  Q 472.05 280.62 472.87 281.83
  C 473.91 283.35 474.41 284.89 475.83 286.13
  Q 476.83 287.00 477.81 287.88
  Q 481.28 291.01 485.66 292.42
  C 487.58 293.03 489.56 294.22 491.87 294.49
  Q 492.05 294.52 492.12 294.68
  Q 492.25 294.97 492.53 295.03
  Q 498.71 296.35 504.27 294.32
  C 505.66 293.81 507.90 293.39 509.46 292.30
  C 511.24 291.06 512.32 290.62 514.12 289.93
  Q 514.22 289.90 514.28 290.00
  L 514.37 290.15
  Q 514.42 290.23 514.47 290.15
  Q 515.47 288.34 517.59 288.19"
/>
<path stroke="#962921" vector-effect="non-scaling-stroke" d="
  M 518.40 288.86
  L 527.62 296.43"
/>
<path stroke="#5b150f" vector-effect="non-scaling-stroke" d="
  M 453.07 264.50
  C 452.19 266.96 453.62 267.79 454.22 269.53
  C 455.08 272.06 455.24 274.81 455.99 277.10
  Q 458.62 285.11 460.08 287.14
  C 461.56 289.21 462.78 291.97 464.87 293.42
  Q 465.20 293.65 465.16 294.05
  Q 465.07 294.81 465.68 295.33
  Q 468.70 297.92 471.85 300.41
  Q 471.89 300.44 471.89 300.50
  Q 471.90 300.65 471.90 300.81
  A 0.33 0.33 0.0 0 0 472.21 301.14
  C 473.80 301.28 474.14 302.21 475.14 302.88
  Q 478.16 304.89 481.45 306.43
  Q 482.53 306.94 483.69 307.23
  C 489.43 308.69 493.64 309.61 500.38 308.78
  Q 500.51 308.77 500.55 308.68
  Q 500.61 308.57 500.62 308.43
  Q 500.62 308.35 500.70 308.34
  C 502.79 308.00 506.90 307.52 508.65 306.43
  A 2.09 0.41 -36.8 0 1 509.64 305.95
  L 515.80 304.52
  A 0.58 0.56 7.2 0 0 516.16 304.25
  Q 516.51 303.64 517.08 303.61
  Q 517.52 303.59 517.88 303.36
  Q 520.51 301.73 522.67 299.57
  C 523.55 298.69 524.28 298.45 525.45 298.27
  A 0.85 0.84 5.4 0 0 526.10 297.74
  Q 526.48 296.76 527.62 296.43"
/>
<path stroke="#7a201a" vector-effect="non-scaling-stroke" d="
  M 527.62 296.43
  L 534.62 303.24"
/>
<path stroke="#5b150f" vector-effect="non-scaling-stroke" d="
  M 534.62 303.24
  L 541.19 311.20"
/>
<path stroke="#2b0805" vector-effect="non-scaling-stroke" d="
  M 541.19 311.20
  L 537.96 312.67
  Q 537.53 312.87 537.24 313.25
  C 536.55 314.18 535.18 314.13 534.46 314.50
  Q 531.95 315.83 529.87 317.76
  C 528.04 319.45 526.51 319.87 524.44 320.97
  Q 522.28 322.12 520.03 322.61
  C 514.80 323.74 510.22 325.38 504.50 326.19
  Q 504.11 326.25 503.78 326.46
  Q 503.36 326.73 502.51 326.82
  Q 493.73 327.73 486.33 325.67
  C 485.10 325.32 483.40 325.37 481.99 324.30
  Q 481.59 323.99 481.09 323.92
  C 478.95 323.59 476.92 323.48 475.00 322.36
  Q 471.00 320.03 467.06 317.62
  C 466.46 317.25 466.18 316.60 465.45 316.30
  Q 465.12 316.17 464.86 315.92
  L 458.16 309.59
  Q 457.83 309.28 457.43 309.08
  Q 455.81 308.24 453.90 306.11
  C 453.03 305.15 451.70 304.61 450.76 303.26
  Q 448.87 300.55 446.77 297.96
  A 0.72 0.72 0.0 0 1 446.61 297.48
  Q 446.67 296.34 445.66 296.06
  Q 445.15 295.93 444.94 295.45
  Q 443.71 292.70 442.59 289.89
  Q 442.57 289.84 442.43 289.62
  Q 442.31 289.42 442.42 289.22
  Q 442.58 288.92 442.47 288.60
  Q 440.06 281.20 438.49 273.59
  Q 438.14 271.87 437.36 270.04
  Q 436.49 268.01 436.10 266.50
  Q 435.99 266.07 436.38 265.55
  Q 436.69 265.13 436.24 264.86
  Q 435.82 264.61 435.02 264.64"
/>
<path stroke="#47100c" vector-effect="non-scaling-stroke" d="
  M 541.19 311.20
  L 546.38 318.15"
/>
<path stroke="#2c436f" vector-effect="non-scaling-stroke" d="
  M 274.09 430.72
  C 272.16 433.78 271.99 438.35 271.99 441.50
  Q 272.02 501.79 271.96 562.08
  Q 271.96 562.13 271.93 562.20
  Q 271.90 562.25 271.87 562.31"
/>
<path stroke="#7888e9" vector-effect="non-scaling-stroke" d="
  M 271.87 562.31
  L 271.68 561.94
  A 0.56 0.56 0.0 0 0 270.74 561.85
  L 265.87 568.06
  Q 265.54 568.48 265.04 568.66
  C 262.46 569.61 259.32 574.92 257.41 577.15
  Q 257.17 577.44 257.16 577.82
  C 257.13 578.81 255.24 579.45 255.27 581.73"
/>
<path stroke="#374990" vector-effect="non-scaling-stroke" d="
  M 255.27 581.73
  L 254.54 580.55"
/>
<path stroke="#31a1da" vector-effect="non-scaling-stroke" d="
  M 241.03 571.16
  Q 242.42 567.17 243.82 563.25
  C 244.54 561.25 244.37 559.04 245.07 556.87
  Q 245.23 556.38 245.10 555.89
  Q 244.65 554.16 245.25 552.46"
/>
<path stroke="#2c436f" vector-effect="non-scaling-stroke" d="
  M 245.25 552.46
  L 251.93 554.94
  A 0.40 0.40 0.0 0 0 252.46 554.65
  Q 252.73 553.49 252.73 552.25
  Q 252.89 503.39 252.70 454.14
  A 0.96 0.96 0.0 0 0 251.49 453.21
  Q 242.84 455.50 235.08 462.95"
/>
<path stroke="#31a1da" vector-effect="non-scaling-stroke" d="
  M 235.08 462.95
  L 233.41 450.23
  Q 233.40 450.13 233.50 450.12
  Q 233.62 450.10 233.75 450.02
  Q 233.80 449.98 233.78 449.93
  L 230.96 441.60"
/>
<path stroke="#190d3a" vector-effect="non-scaling-stroke" d="
  M 302.07 557.65
  Q 302.75 561.26 298.09 561.62
  Q 294.96 561.86 293.50 562.18
  Q 291.21 562.68 288.87 562.91
  Q 286.86 563.11 281.75 565.56
  Q 281.08 565.88 278.31 566.57
  Q 274.95 567.40 271.97 571.61"
/>
<path stroke="#4d467b" vector-effect="non-scaling-stroke" d="
  M 271.97 571.61
  L 271.87 562.31"
/>
<path stroke="#584c9c" vector-effect="non-scaling-stroke" d="
  M 255.27 581.73
  Q 256.95 586.18 260.52 590.15"
/>
<path stroke="#24135b" vector-effect="non-scaling-stroke" d="
  M 260.52 590.15
  Q 257.77 602.68 261.57 614.38
  C 261.90 615.41 262.82 616.40 263.15 617.69
  C 263.95 620.85 266.17 623.74 268.06 626.34
  C 268.80 627.37 270.02 627.84 270.93 628.84
  C 272.34 630.38 273.91 631.30 275.10 632.90
  Q 275.36 633.24 276.13 633.41
  A 1.50 1.44 72.7 0 1 276.89 633.83
  Q 279.27 636.31 282.62 637.19
  A 0.68 0.63 81.6 0 1 283.03 637.52
  L 283.19 637.80
  A 0.77 0.75 81.3 0 0 283.71 638.19
  C 286.50 638.73 289.14 640.02 291.75 640.45
  Q 293.79 640.78 295.83 641.05
  Q 296.10 641.09 296.28 641.29
  Q 296.38 641.40 296.51 641.48
  Q 296.69 641.60 297.02 641.58
  C 302.25 641.38 307.71 641.48 312.73 640.50
  C 317.36 639.60 319.48 638.31 322.75 636.54
  Q 324.54 635.58 325.76 634.31
  C 327.86 632.12 330.28 630.11 331.67 627.37
  C 332.60 625.56 333.72 624.43 334.16 622.23
  Q 334.69 619.61 334.95 618.83
  Q 335.52 617.09 335.91 615.29
  C 336.56 612.29 338.06 609.37 338.39 606.51
  Q 339.14 599.97 337.63 592.44
  C 337.34 591.02 336.44 589.83 336.04 588.36
  C 335.23 585.34 333.75 582.99 332.27 580.58
  A 29.12 29.05 -82.3 0 0 328.58 575.73
  Q 328.50 575.65 326.75 572.50
  Q 326.43 571.93 325.64 571.52
  Q 325.24 571.32 325.04 570.92
  L 323.42 567.84
  Q 323.21 567.45 322.78 567.40
  Q 322.61 567.39 322.49 567.25
  Q 322.08 566.77 322.06 566.63
  L 321.62 563.87"
/>
<path stroke="#584c9c" vector-effect="non-scaling-stroke" d="
  M 321.62 563.87
  Q 321.45 564.18 321.51 563.56"
/>
<path stroke="#6553b4" vector-effect="non-scaling-stroke" d="
  M 321.62 563.87
  L 321.44 569.19"
/>
<path stroke="#745fc9" vector-effect="non-scaling-stroke" d="
  M 321.44 569.19
  Q 321.18 571.85 320.92 574.49
  C 320.18 581.92 316.40 588.57 310.84 593.48
  A 1.66 1.66 0.0 0 0 310.39 595.34
  Q 312.41 600.43 310.83 605.77
  Q 310.05 608.40 307.95 610.40
  Q 305.54 612.68 303.25 613.45
  Q 299.52 614.71 295.07 613.29
  C 292.65 612.52 290.65 610.63 288.67 608.97
  Q 288.31 608.67 288.15 608.23
  L 286.22 602.96
  Q 286.05 602.49 286.09 601.99
  Q 286.24 600.25 284.52 600.20
  Q 273.32 599.88 265.39 594.65"
/>
<path stroke="#6553b4" vector-effect="non-scaling-stroke" d="
  M 265.39 594.65
  L 260.52 590.15"
/>
<path stroke="#6553b4" vector-effect="non-scaling-stroke" d="
  M 271.97 571.61
  Q 272.07 576.33 276.17 578.92
  Q 278.88 580.64 283.71 580.73
  C 289.91 580.85 299.05 581.23 301.64 574.32
  C 302.63 571.67 302.24 567.90 302.36 564.81"
/>
<path stroke="#055f6c" vector-effect="non-scaling-stroke" d="
  M 586.64 434.00
  Q 585.79 438.51 585.78 444.50
  Q 585.72 507.00 586.04 569.50
  Q 586.04 571.42 586.32 573.29"
/>
<path stroke="#31a1da" vector-effect="non-scaling-stroke" d="
  M 586.32 573.29
  Q 586.44 573.83 586.35 574.34
  Q 586.25 574.87 585.72 574.87
  L 585.00 574.87
  Q 584.51 574.87 584.37 575.33
  Q 581.42 584.82 580.61 595.64"
/>
<path stroke="#2c436f" vector-effect="non-scaling-stroke" d="
  M 613.77 577.65
  C 609.62 581.60 602.46 581.15 596.76 580.69
  Q 588.62 580.05 586.32 573.29"
/>
<path stroke="#c4578a" vector-effect="non-scaling-stroke" d="
  M 655.79 440.68
  Q 656.31 442.11 656.04 443.23
  Q 655.94 443.65 656.06 444.07
  Q 656.52 445.64 655.97 447.72
  Q 655.38 449.98 655.56 456.73
  Q 655.57 456.75 655.90 460.75
  Q 656.11 463.26 655.74 465.91"
/>
<path stroke="#59294e" vector-effect="non-scaling-stroke" d="
  M 655.74 465.91
  Q 650.61 459.75 643.91 456.06"
/>
<path stroke="#59294e" vector-effect="non-scaling-stroke" d="
  M 659.25 536.89
  Q 652.77 548.09 641.31 553.21"
/>
<path stroke="#055f6c" vector-effect="non-scaling-stroke" d="
  M 235.08 462.95
  Q 224.12 473.93 224.07 490.75
  Q 224.03 504.50 224.08 518.25
  C 224.12 532.99 232.23 545.72 245.25 552.46"
/>
<path stroke="#402788" vector-effect="non-scaling-stroke" d="
  M 265.39 594.65
  Q 265.27 603.73 266.63 609.25
  Q 267.11 611.22 269.69 616.61
  C 270.11 617.50 271.09 618.13 271.37 618.88
  Q 272.74 622.52 275.75 625.01
  Q 275.91 625.14 275.90 625.44
  Q 275.90 625.80 276.17 626.04
  Q 278.70 628.23 281.75 629.63
  Q 282.02 629.75 282.18 630.15
  Q 282.38 630.64 282.87 630.83
  L 285.69 631.95
  Q 286.08 632.11 286.49 632.12
  Q 287.48 632.14 288.10 632.88
  A 1.33 1.32 -15.4 0 0 288.88 633.32
  C 295.46 634.54 301.49 635.84 307.99 633.25
  Q 309.59 632.61 310.83 632.38
  Q 311.26 632.31 311.65 632.11
  C 312.84 631.49 314.28 631.41 315.29 630.92
  C 319.50 628.87 322.17 626.54 325.21 622.79
  Q 326.53 621.17 327.26 618.81
  Q 327.92 616.66 328.71 614.56
  Q 328.88 614.10 328.84 613.62
  Q 328.81 613.18 329.00 612.87
  Q 329.50 612.05 329.51 612.03
  Q 331.31 606.50 331.40 600.71
  C 331.46 597.63 330.66 594.22 330.18 590.98
  A 0.52 0.50 -85.3 0 0 329.85 590.58
  Q 329.63 590.50 329.57 590.28
  C 328.96 588.00 327.67 586.33 326.80 584.34
  Q 325.88 582.24 324.24 580.60
  C 323.34 579.70 322.94 578.55 322.11 577.58
  Q 321.79 577.21 321.77 576.71
  L 321.44 569.19"
/>
<path stroke="#c4578a" vector-effect="non-scaling-stroke" d="
  M 663.35 561.90
  C 663.14 557.91 663.09 554.38 663.51 550.50
  Q 663.62 549.43 663.49 548.50
  Q 662.88 544.10 661.85 538.63
  Q 661.72 537.93 661.36 538.55
  Q 661.33 538.61 661.34 538.84
  A 0.12 0.10 -51.7 0 1 661.12 538.88
  Q 661.11 538.55 661.05 538.23
  Q 660.97 537.74 660.53 537.52
  L 659.25 536.89"
/>
<path stroke="#6b2e3c" vector-effect="non-scaling-stroke" d="
  M 659.25 536.89
  Q 663.86 529.06 663.96 521.75
  Q 664.16 506.75 664.23 491.75
  Q 664.30 476.55 655.74 465.91"
/>
<path stroke="#055f6c" vector-effect="non-scaling-stroke" d="
  M 675.82 393.33
  C 678.09 389.71 680.01 386.47 679.00 382.04
  C 678.75 380.92 677.83 380.17 677.31 379.12
  Q 676.59 377.66 675.98 377.20
  C 673.32 375.24 667.20 375.51 664.09 375.92
  C 662.96 376.08 662.13 376.83 661.25 377.52
  Q 660.23 378.32 659.83 379.49
  Q 658.04 384.81 659.81 390.15
  C 660.23 391.42 661.61 393.51 662.51 394.10
  Q 666.54 396.72 671.96 395.53
  Q 672.43 395.43 672.80 395.14
  Q 673.90 394.27 675.21 393.81
  A 1.16 1.15 -82.9 0 0 675.82 393.33"
/>
</g>
<path fill="#000000" d="
  M 0.00 0.00
  L 900.00 0.00
  L 900.00 900.00
  L 0.00 900.00
  L 0.00 0.00
  Z
  M 456.20 214.07
  C 440.90 212.74 426.19 214.13 409.96 217.10
  Q 382.52 222.54 358.19 236.18
  Q 336.78 248.04 319.67 265.41
  Q 285.51 300.05 274.64 347.55
  Q 273.61 352.04 272.70 356.55
  C 271.35 363.23 271.18 370.52 270.30 377.50
  Q 269.72 382.04 270.33 397.49
  Q 269.93 403.72 270.08 406.50
  C 270.35 411.67 265.50 412.67 262.33 415.68
  Q 257.71 420.05 255.24 426.00
  C 254.32 428.22 253.32 433.06 250.64 433.69
  Q 239.59 436.30 230.96 441.60
  Q 225.01 445.40 221.05 449.56
  Q 205.31 466.11 204.60 489.50
  Q 204.20 502.62 204.37 515.75
  C 204.69 540.57 217.28 562.10 241.03 571.16
  Q 245.45 573.19 251.01 574.17
  C 253.16 574.55 253.88 578.74 254.54 580.55
  Q 254.04 580.69 253.49 580.63
  Q 253.37 580.61 253.36 580.49
  Q 253.36 580.36 253.36 580.23
  Q 253.35 580.02 253.15 579.97
  Q 252.06 579.68 251.47 580.38
  Q 251.15 580.76 251.11 581.70
  Q 251.02 584.08 249.87 587.63
  Q 248.16 592.89 247.90 599.72
  C 247.75 603.39 248.76 607.70 248.89 611.74
  Q 249.01 615.81 252.74 622.56
  Q 252.89 622.83 252.88 623.13
  C 252.87 623.44 252.95 623.74 253.17 624.01
  Q 253.98 625.06 255.78 628.22
  Q 256.95 630.27 260.52 633.67
  C 261.57 634.68 263.11 635.55 264.24 636.72
  Q 265.76 638.31 266.95 639.02
  C 269.79 640.70 272.38 642.59 275.32 644.23
  C 277.55 645.49 279.45 647.01 281.83 647.98
  C 284.51 649.07 287.15 650.45 289.71 651.01
  Q 297.27 652.66 304.62 650.13
  C 306.35 649.54 308.36 649.32 310.17 648.40
  Q 310.59 648.18 311.06 648.28
  Q 313.92 648.90 316.25 646.83
  A 1.92 1.83 15.0 0 1 317.02 646.41
  Q 317.78 646.20 318.26 645.50
  Q 318.54 645.09 318.99 644.88
  Q 320.08 644.37 320.75 643.40
  A 2.37 2.26 -85.8 0 1 321.49 642.73
  Q 324.39 641.05 326.51 638.51
  Q 326.81 638.14 327.27 638.01
  Q 329.95 637.27 331.12 634.78
  A 1.60 1.58 -87.8 0 1 331.97 633.98
  Q 333.23 633.49 333.66 632.27
  A 1.01 0.98 -9.6 0 1 334.02 631.78
  L 337.39 629.33
  A 1.35 1.33 -8.2 0 0 337.86 628.71
  Q 338.72 626.32 340.61 624.64
  A 1.17 1.16 -16.6 0 0 341.01 623.91
  Q 341.12 623.21 341.44 622.67
  Q 344.45 617.62 347.02 612.33
  C 347.46 611.44 347.55 610.27 347.98 609.27
  Q 348.16 608.86 348.13 608.41
  C 347.98 606.30 349.11 604.88 349.36 603.18
  Q 350.62 594.24 349.63 588.00
  Q 348.95 583.75 345.98 577.04
  C 345.20 575.27 343.61 574.23 342.65 572.47
  Q 341.29 569.96 340.43 568.96
  Q 339.18 567.52 338.03 566.01
  Q 336.87 564.49 335.33 563.43
  Q 332.00 561.13 330.99 559.87
  Q 329.20 557.62 327.77 556.54
  C 326.50 555.58 324.76 555.81 323.15 555.35
  A 1.02 1.01 -2.2 0 1 322.48 554.74
  Q 321.84 553.04 321.89 551.30
  Q 321.52 544.14 321.52 537.00
  Q 321.51 463.43 321.51 389.86
  C 321.51 381.04 321.87 370.59 323.22 363.50
  Q 329.73 329.27 353.25 303.79
  Q 379.78 275.65 417.71 267.15
  L 432.35 264.93
  Q 432.57 266.79 431.84 267.49
  C 427.66 271.50 427.40 279.09 429.01 284.22
  Q 430.64 289.43 431.57 294.77
  Q 431.66 295.25 431.93 295.64
  Q 433.25 297.50 434.47 299.41
  C 436.68 302.86 439.37 305.50 442.24 308.20
  Q 442.60 308.54 443.18 308.80
  C 444.74 309.51 445.98 310.49 447.51 311.14
  C 451.10 312.68 455.16 314.79 458.15 317.31
  Q 459.37 318.33 460.65 319.27
  Q 461.06 319.58 461.29 320.03
  Q 462.92 323.24 465.26 325.93
  Q 465.52 326.23 465.90 326.35
  Q 466.58 326.56 466.61 327.25
  C 467.85 328.92 469.75 329.96 471.04 331.21
  C 472.99 333.10 476.67 335.93 479.47 336.28
  Q 480.92 336.47 481.97 336.76
  Q 493.03 339.80 506.25 339.51
  C 513.07 339.36 518.52 339.00 524.36 336.61
  C 526.89 335.58 530.12 335.19 532.24 333.66
  Q 533.71 332.60 534.92 331.27
  Q 537.23 328.73 538.63 327.80
  Q 540.94 326.26 543.38 324.86
  Q 543.85 324.60 544.05 324.10
  Q 544.59 322.78 546.04 322.47
  A 0.66 0.66 0.0 0 0 546.47 321.49
  Q 545.65 320.10 546.38 318.15
  L 551.78 327.05
  Q 562.22 345.41 565.21 366.05
  Q 566.20 372.87 566.40 385.99
  Q 566.67 404.20 566.47 422.70
  A 0.94 0.94 0.0 0 0 567.36 423.65
  Q 567.91 423.69 568.26 423.48
  A 0.39 0.38 -20.5 0 1 568.84 423.74
  Q 569.01 424.83 568.74 426.09
  Q 566.72 431.93 566.49 440.75
  Q 566.17 452.50 566.19 464.25
  Q 566.26 517.50 566.30 570.75
  Q 566.32 586.12 580.61 595.64
  Q 584.18 597.67 587.50 598.54
  Q 600.20 601.84 613.96 598.82
  C 625.07 595.59 631.53 587.91 634.74 577.19
  C 635.83 573.57 638.77 574.01 641.81 573.29
  Q 653.73 569.63 663.35 561.90
  Q 677.92 549.03 682.12 530.93
  C 684.55 520.43 683.64 505.68 683.82 493.51
  Q 684.34 459.16 655.79 440.68
  L 644.47 435.62
  Q 641.50 434.50 637.71 433.53
  C 635.04 432.86 634.46 430.48 633.51 427.79
  Q 628.65 414.12 614.93 409.28
  L 614.29 407.90
  Q 614.09 407.47 614.38 407.09
  Q 614.90 406.40 615.93 406.78
  A 1.47 1.47 0.0 0 0 617.85 405.82
  Q 618.26 404.46 618.62 402.84
  Q 618.85 401.79 618.87 400.64
  C 619.03 392.12 618.92 383.87 617.64 376.07
  C 617.00 372.16 616.98 368.03 616.38 364.00
  Q 615.33 356.96 614.03 349.97
  C 608.47 320.21 593.80 293.48 574.08 270.68
  Q 572.48 268.83 568.14 264.74
  L 555.60 253.42
  Q 556.31 250.51 554.17 247.45
  Q 553.99 247.19 553.36 246.69
  C 552.60 246.08 552.43 244.96 552.02 244.34
  Q 548.35 238.85 545.31 233.00
  Q 543.69 229.88 541.86 227.64
  C 538.72 223.78 536.51 221.03 531.49 218.26
  Q 531.14 218.06 530.75 217.31
  A 1.34 1.34 0.0 0 0 530.15 216.71
  Q 527.66 215.46 525.20 214.18
  C 522.43 212.74 518.71 209.92 514.55 208.87
  A 0.26 0.25 20.1 0 0 514.26 209.00
  Q 514.20 209.12 514.13 209.25
  Q 514.11 209.28 514.07 209.19
  Q 513.88 208.75 513.38 208.87
  C 507.19 207.05 498.33 205.81 491.35 207.37
  Q 488.19 208.08 488.10 208.09
  Q 480.78 209.16 477.89 210.41
  C 473.86 212.15 469.99 210.50 466.34 213.49
  Q 466.14 213.66 466.13 213.92
  Q 466.13 214.08 466.14 214.26
  Q 466.16 214.69 465.73 214.66
  L 456.20 214.07
  Z
  M 675.82 393.33
  C 678.09 389.71 680.01 386.47 679.00 382.04
  C 678.75 380.92 677.83 380.17 677.31 379.12
  Q 676.59 377.66 675.98 377.20
  C 673.32 375.24 667.20 375.51 664.09 375.92
  C 662.96 376.08 662.13 376.83 661.25 377.52
  Q 660.23 378.32 659.83 379.49
  Q 658.04 384.81 659.81 390.15
  C 660.23 391.42 661.61 393.51 662.51 394.10
  Q 666.54 396.72 671.96 395.53
  Q 672.43 395.43 672.80 395.14
  Q 673.90 394.27 675.21 393.81
  A 1.16 1.15 -82.9 0 0 675.82 393.33
  Z"
/>
<path fill="#3f0c08" d="
  M 555.60 253.42
  L 540.98 242.80
  C 519.23 228.03 492.86 218.82 466.93 215.30
  C 464.17 214.93 459.78 214.85 456.20 214.07
  L 465.73 214.66
  Q 466.16 214.69 466.14 214.26
  Q 466.13 214.08 466.13 213.92
  Q 466.14 213.66 466.34 213.49
  C 469.99 210.50 473.86 212.15 477.89 210.41
  Q 480.78 209.16 488.10 208.09
  Q 488.19 208.08 491.35 207.37
  C 498.33 205.81 507.19 207.05 513.38 208.87
  Q 513.88 208.75 514.07 209.19
  Q 514.11 209.28 514.13 209.25
  Q 514.20 209.12 514.26 209.00
  A 0.26 0.25 20.1 0 1 514.55 208.87
  C 518.71 209.92 522.43 212.74 525.20 214.18
  Q 527.66 215.46 530.15 216.71
  A 1.34 1.34 0.0 0 1 530.75 217.31
  Q 531.14 218.06 531.49 218.26
  C 536.51 221.03 538.72 223.78 541.86 227.64
  Q 543.69 229.88 545.31 233.00
  Q 548.35 238.85 552.02 244.34
  C 552.43 244.96 552.60 246.08 553.36 246.69
  Q 553.99 247.19 554.17 247.45
  Q 556.31 250.51 555.60 253.42
  Z"
/>
<path fill="#ea635a" d="
  M 456.20 214.07
  C 459.78 214.85 464.17 214.93 466.93 215.30
  C 492.86 218.82 519.23 228.03 540.98 242.80
  Q 541.47 245.97 543.26 248.84
  Q 543.53 249.28 543.55 249.78
  Q 543.71 254.32 544.60 258.76
  Q 545.19 261.74 544.67 269.41
  Q 531.95 258.55 516.25 250.52
  Q 502.64 243.23 486.17 238.76
  Q 476.00 235.97 469.75 235.03
  Q 461.71 233.81 448.52 232.96
  Q 442.06 232.55 435.00 233.21
  Q 420.72 234.56 408.76 236.99
  L 409.77 231.73
  Q 409.83 231.43 409.70 231.15
  Q 409.63 230.97 409.65 230.75
  Q 410.37 224.11 409.96 217.10
  C 426.19 214.13 440.90 212.74 456.20 214.07
  Z"
/>
<path fill="#b2529c" d="
  M 409.96 217.10
  Q 410.37 224.11 409.65 230.75
  Q 409.63 230.97 409.70 231.15
  Q 409.83 231.43 409.77 231.73
  L 408.76 236.99
  Q 384.70 242.53 362.53 255.83
  Q 359.83 252.19 360.03 245.87
  Q 360.04 245.39 359.81 244.97
  Q 359.49 244.40 359.34 243.63
  Q 359.26 243.20 359.02 242.84
  Q 357.02 239.89 358.19 236.18
  Q 382.52 222.54 409.96 217.10
  Z"
/>
<path fill="#000000" d="
  M 448.52 232.96
  Q 443.92 234.46 443.45 237.41
  Q 443.38 237.92 443.01 238.28
  Q 439.68 241.65 440.67 245.25
  Q 429.33 245.26 418.23 247.42
  C 390.74 252.41 364.88 265.34 344.92 284.95
  C 321.20 307.82 306.80 337.15 303.05 370.00
  Q 302.05 378.69 302.34 408.45
  Q 302.35 409.24 302.03 409.46
  Q 301.59 409.76 300.70 409.33
  L 290.35 408.28
  A 1.36 1.35 -87.2 0 1 289.13 406.93
  C 289.14 395.61 288.88 384.46 289.94 373.40
  Q 291.05 361.77 291.71 358.25
  Q 299.90 314.32 330.19 282.16
  Q 345.12 266.23 362.53 255.83
  Q 384.70 242.53 408.76 236.99
  Q 420.72 234.56 435.00 233.21
  Q 442.06 232.55 448.52 232.96
  Z"
/>
<path fill="#3f0c08" d="
  M 448.52 232.96
  Q 461.71 233.81 469.75 235.03
  Q 476.00 235.97 486.17 238.76
  Q 484.91 240.47 483.05 240.94
  Q 482.57 241.06 482.18 241.36
  C 480.92 242.34 480.39 243.14 478.77 243.73
  Q 474.97 245.12 474.77 248.42
  Q 458.23 244.88 440.67 245.25
  Q 439.68 241.65 443.01 238.28
  Q 443.38 237.92 443.45 237.41
  Q 443.92 234.46 448.52 232.96
  Z"
/>
<path fill="#6c46de" d="
  M 358.19 236.18
  Q 357.02 239.89 359.02 242.84
  Q 359.26 243.20 359.34 243.63
  Q 359.49 244.40 359.81 244.97
  Q 360.04 245.39 360.03 245.87
  Q 359.83 252.19 362.53 255.83
  Q 345.12 266.23 330.19 282.16
  Q 328.82 281.70 328.60 279.60
  A 1.45 1.38 -71.0 0 0 328.21 278.75
  Q 325.84 276.33 324.78 273.15
  C 324.08 271.04 322.96 269.62 322.05 267.67
  Q 321.87 267.29 321.50 267.10
  Q 320.92 266.81 321.12 266.05
  Q 321.24 265.62 320.79 265.63
  Q 320.15 265.66 319.67 265.41
  Q 336.78 248.04 358.19 236.18
  Z"
/>
<path fill="#b5342b" d="
  M 486.17 238.76
  Q 502.64 243.23 516.25 250.52
  Q 516.59 255.81 519.17 260.74
  Q 520.16 262.64 520.23 266.88
  Q 509.15 259.81 500.12 256.13
  Q 489.46 251.78 474.77 248.42
  Q 474.97 245.12 478.77 243.73
  C 480.39 243.14 480.92 242.34 482.18 241.36
  Q 482.57 241.06 483.05 240.94
  Q 484.91 240.47 486.17 238.76
  Z"
/>
<path fill="#761d16" d="
  M 540.98 242.80
  L 555.60 253.42
  L 568.14 264.74
  Q 569.81 272.88 569.36 279.25
  Q 568.98 284.67 566.23 291.76
  L 561.59 286.14
  Q 553.57 276.99 544.67 269.41
  Q 545.19 261.74 544.60 258.76
  Q 543.71 254.32 543.55 249.78
  Q 543.53 249.28 543.26 248.84
  Q 541.47 245.97 540.98 242.80
  Z"
/>
<path fill="#ea635a" d="
  M 440.67 245.25
  Q 458.23 244.88 474.77 248.42
  Q 489.46 251.78 500.12 256.13
  Q 509.15 259.81 520.23 266.88
  L 525.45 270.18
  Q 524.65 275.84 522.32 283.73
  C 521.59 286.21 520.79 286.82 519.47 288.54
  Q 519.14 288.97 518.40 288.86
  L 517.59 288.19
  C 509.46 282.02 502.69 278.99 492.08 274.00
  C 491.16 273.57 490.09 273.38 489.06 272.95
  Q 479.10 268.81 468.41 266.61
  L 453.07 264.50
  L 435.02 264.64
  L 432.35 264.93
  L 417.71 267.15
  L 418.23 247.42
  Q 429.33 245.26 440.67 245.25
  Z"
/>
<path fill="#b2529c" d="
  M 418.23 247.42
  L 417.71 267.15
  Q 379.78 275.65 353.25 303.79
  Q 350.59 300.06 349.99 295.76
  Q 349.80 294.38 349.25 293.39
  Q 348.62 292.26 348.01 291.15
  Q 346.36 288.19 344.92 284.95
  C 364.88 265.34 390.74 252.41 418.23 247.42
  Z"
/>
<path fill="#3f0c08" d="
  M 516.25 250.52
  Q 531.95 258.55 544.67 269.41
  Q 553.57 276.99 561.59 286.14
  Q 560.50 286.13 560.61 287.00
  Q 560.79 288.47 559.79 289.03
  Q 559.36 289.26 559.10 289.68
  Q 558.50 290.67 557.57 291.40
  A 1.14 1.13 70.9 0 0 557.14 292.29
  Q 557.13 294.70 557.89 296.98
  A 0.76 0.76 0.0 0 1 557.67 297.78
  L 556.28 298.97
  L 540.87 282.53
  Q 533.57 275.71 525.45 270.18
  L 520.23 266.88
  Q 520.16 262.64 519.17 260.74
  Q 516.59 255.81 516.25 250.52
  Z"
/>
<path fill="#3f0c08" d="
  M 453.07 264.50
  C 452.19 266.96 453.62 267.79 454.22 269.53
  C 455.08 272.06 455.24 274.81 455.99 277.10
  Q 458.62 285.11 460.08 287.14
  C 461.56 289.21 462.78 291.97 464.87 293.42
  Q 465.20 293.65 465.16 294.05
  Q 465.07 294.81 465.68 295.33
  Q 468.70 297.92 471.85 300.41
  Q 471.89 300.44 471.89 300.50
  Q 471.90 300.65 471.90 300.81
  A 0.33 0.33 0.0 0 0 472.21 301.14
  C 473.80 301.28 474.14 302.21 475.14 302.88
  Q 478.16 304.89 481.45 306.43
  Q 482.53 306.94 483.69 307.23
  C 489.43 308.69 493.64 309.61 500.38 308.78
  Q 500.51 308.77 500.55 308.68
  Q 500.61 308.57 500.62 308.43
  Q 500.62 308.35 500.70 308.34
  C 502.79 308.00 506.90 307.52 508.65 306.43
  A 2.09 0.41 -36.8 0 1 509.64 305.95
  L 515.80 304.52
  A 0.58 0.56 7.2 0 0 516.16 304.25
  Q 516.51 303.64 517.08 303.61
  Q 517.52 303.59 517.88 303.36
  Q 520.51 301.73 522.67 299.57
  C 523.55 298.69 524.28 298.45 525.45 298.27
  A 0.85 0.84 5.4 0 0 526.10 297.74
  Q 526.48 296.76 527.62 296.43
  L 534.62 303.24
  L 541.19 311.20
  L 537.96 312.67
  Q 537.53 312.87 537.24 313.25
  C 536.55 314.18 535.18 314.13 534.46 314.50
  Q 531.95 315.83 529.87 317.76
  C 528.04 319.45 526.51 319.87 524.44 320.97
  Q 522.28 322.12 520.03 322.61
  C 514.80 323.74 510.22 325.38 504.50 326.19
  Q 504.11 326.25 503.78 326.46
  Q 503.36 326.73 502.51 326.82
  Q 493.73 327.73 486.33 325.67
  C 485.10 325.32 483.40 325.37 481.99 324.30
  Q 481.59 323.99 481.09 323.92
  C 478.95 323.59 476.92 323.48 475.00 322.36
  Q 471.00 320.03 467.06 317.62
  C 466.46 317.25 466.18 316.60 465.45 316.30
  Q 465.12 316.17 464.86 315.92
  L 458.16 309.59
  Q 457.83 309.28 457.43 309.08
  Q 455.81 308.24 453.90 306.11
  C 453.03 305.15 451.70 304.61 450.76 303.26
  Q 448.87 300.55 446.77 297.96
  A 0.72 0.72 0.0 0 1 446.61 297.48
  Q 446.67 296.34 445.66 296.06
  Q 445.15 295.93 444.94 295.45
  Q 443.71 292.70 442.59 289.89
  Q 442.57 289.84 442.43 289.62
  Q 442.31 289.42 442.42 289.22
  Q 442.58 288.92 442.47 288.60
  Q 440.06 281.20 438.49 273.59
  Q 438.14 271.87 437.36 270.04
  Q 436.49 268.01 436.10 266.50
  Q 435.99 266.07 436.38 265.55
  Q 436.69 265.13 436.24 264.86
  Q 435.82 264.61 435.02 264.64
  L 453.07 264.50
  Z"
/>
<path fill="#761d16" d="
  M 453.07 264.50
  L 468.41 266.61
  C 468.28 271.93 469.81 275.16 471.61 279.54
  Q 472.05 280.62 472.87 281.83
  C 473.91 283.35 474.41 284.89 475.83 286.13
  Q 476.83 287.00 477.81 287.88
  Q 481.28 291.01 485.66 292.42
  C 487.58 293.03 489.56 294.22 491.87 294.49
  Q 492.05 294.52 492.12 294.68
  Q 492.25 294.97 492.53 295.03
  Q 498.71 296.35 504.27 294.32
  C 505.66 293.81 507.90 293.39 509.46 292.30
  C 511.24 291.06 512.32 290.62 514.12 289.93
  Q 514.22 289.90 514.28 290.00
  L 514.37 290.15
  Q 514.42 290.23 514.47 290.15
  Q 515.47 288.34 517.59 288.19
  L 518.40 288.86
  L 527.62 296.43
  Q 526.48 296.76 526.10 297.74
  A 0.85 0.84 5.4 0 1 525.45 298.27
  C 524.28 298.45 523.55 298.69 522.67 299.57
  Q 520.51 301.73 517.88 303.36
  Q 517.52 303.59 517.08 303.61
  Q 516.51 303.64 516.16 304.25
  A 0.58 0.56 7.2 0 1 515.80 304.52
  L 509.64 305.95
  A 2.09 0.41 -36.8 0 0 508.65 306.43
  C 506.90 307.52 502.79 308.00 500.70 308.34
  Q 500.62 308.35 500.62 308.43
  Q 500.61 308.57 500.55 308.68
  Q 500.51 308.77 500.38 308.78
  C 493.64 309.61 489.43 308.69 483.69 307.23
  Q 482.53 306.94 481.45 306.43
  Q 478.16 304.89 475.14 302.88
  C 474.14 302.21 473.80 301.28 472.21 301.14
  A 0.33 0.33 0.0 0 1 471.90 300.81
  Q 471.90 300.65 471.89 300.50
  Q 471.89 300.44 471.85 300.41
  Q 468.70 297.92 465.68 295.33
  Q 465.07 294.81 465.16 294.05
  Q 465.20 293.65 464.87 293.42
  C 462.78 291.97 461.56 289.21 460.08 287.14
  Q 458.62 285.11 455.99 277.10
  C 455.24 274.81 455.08 272.06 454.22 269.53
  C 453.62 267.79 452.19 266.96 453.07 264.50
  Z"
/>
<path fill="#170301" d="
  M 435.02 264.64
  Q 435.82 264.61 436.24 264.86
  Q 436.69 265.13 436.38 265.55
  Q 435.99 266.07 436.10 266.50
  Q 436.49 268.01 437.36 270.04
  Q 438.14 271.87 438.49 273.59
  Q 440.06 281.20 442.47 288.60
  Q 442.58 288.92 442.42 289.22
  Q 442.31 289.42 442.43 289.62
  Q 442.57 289.84 442.59 289.89
  Q 443.71 292.70 444.94 295.45
  Q 445.15 295.93 445.66 296.06
  Q 446.67 296.34 446.61 297.48
  A 0.72 0.72 0.0 0 0 446.77 297.96
  Q 448.87 300.55 450.76 303.26
  C 451.70 304.61 453.03 305.15 453.90 306.11
  Q 455.81 308.24 457.43 309.08
  Q 457.83 309.28 458.16 309.59
  L 464.86 315.92
  Q 465.12 316.17 465.45 316.30
  C 466.18 316.60 466.46 317.25 467.06 317.62
  Q 471.00 320.03 475.00 322.36
  C 476.92 323.48 478.95 323.59 481.09 323.92
  Q 481.59 323.99 481.99 324.30
  C 483.40 325.37 485.10 325.32 486.33 325.67
  Q 493.73 327.73 502.51 326.82
  Q 503.36 326.73 503.78 326.46
  Q 504.11 326.25 504.50 326.19
  C 510.22 325.38 514.80 323.74 520.03 322.61
  Q 522.28 322.12 524.44 320.97
  C 526.51 319.87 528.04 319.45 529.87 317.76
  Q 531.95 315.83 534.46 314.50
  C 535.18 314.13 536.55 314.18 537.24 313.25
  Q 537.53 312.87 537.96 312.67
  L 541.19 311.20
  L 546.38 318.15
  Q 545.65 320.10 546.47 321.49
  A 0.66 0.66 0.0 0 1 546.04 322.47
  Q 544.59 322.78 544.05 324.10
  Q 543.85 324.60 543.38 324.86
  Q 540.94 326.26 538.63 327.80
  Q 537.23 328.73 534.92 331.27
  Q 533.71 332.60 532.24 333.66
  C 530.12 335.19 526.89 335.58 524.36 336.61
  C 518.52 339.00 513.07 339.36 506.25 339.51
  Q 493.03 339.80 481.97 336.76
  Q 480.92 336.47 479.47 336.28
  C 476.67 335.93 472.99 333.10 471.04 331.21
  C 469.75 329.96 467.85 328.92 466.61 327.25
  Q 466.58 326.56 465.90 326.35
  Q 465.52 326.23 465.26 325.93
  Q 462.92 323.24 461.29 320.03
  Q 461.06 319.58 460.65 319.27
  Q 459.37 318.33 458.15 317.31
  C 455.16 314.79 451.10 312.68 447.51 311.14
  C 445.98 310.49 444.74 309.51 443.18 308.80
  Q 442.60 308.54 442.24 308.20
  C 439.37 305.50 436.68 302.86 434.47 299.41
  Q 433.25 297.50 431.93 295.64
  Q 431.66 295.25 431.57 294.77
  Q 430.64 289.43 429.01 284.22
  C 427.40 279.09 427.66 271.50 431.84 267.49
  Q 432.57 266.79 432.35 264.93
  L 435.02 264.64
  Z"
/>
<path fill="#2b0c08" d="
  M 568.14 264.74
  Q 572.48 268.83 574.08 270.68
  C 593.80 293.48 608.47 320.21 614.03 349.97
  Q 615.33 356.96 616.38 364.00
  C 616.98 368.03 617.00 372.16 617.64 376.07
  C 618.92 383.87 619.03 392.12 618.87 400.64
  Q 618.85 401.79 618.62 402.84
  Q 618.26 404.46 617.85 405.82
  A 1.47 1.47 0.0 0 1 615.93 406.78
  Q 614.90 406.40 614.38 407.09
  Q 614.09 407.47 614.29 407.90
  L 614.93 409.28
  L 611.46 408.67
  L 598.84 408.26
  Q 598.79 405.00 598.55 401.75
  C 597.84 392.31 598.34 382.65 598.09 373.16
  C 597.97 368.61 597.19 364.12 596.54 359.59
  C 593.26 336.64 583.98 316.46 570.48 297.64
  Q 567.94 294.09 566.23 291.76
  Q 568.98 284.67 569.36 279.25
  Q 569.81 272.88 568.14 264.74
  Z"
/>
<path fill="#655fde" d="
  M 319.67 265.41
  Q 320.15 265.66 320.79 265.63
  Q 321.24 265.62 321.12 266.05
  Q 320.92 266.81 321.50 267.10
  Q 321.87 267.29 322.05 267.67
  C 322.96 269.62 324.08 271.04 324.78 273.15
  Q 325.84 276.33 328.21 278.75
  A 1.45 1.38 -71.0 0 1 328.60 279.60
  Q 328.82 281.70 330.19 282.16
  Q 299.90 314.32 291.71 358.25
  Q 291.05 361.77 289.94 373.40
  C 288.88 384.46 289.14 395.61 289.13 406.93
  A 1.36 1.35 -87.2 0 0 290.35 408.28
  L 300.70 409.33
  Q 298.65 411.95 298.50 415.52
  Q 298.13 424.62 297.74 428.60
  C 291.06 426.95 278.75 425.57 274.09 430.72
  Q 273.54 430.13 273.88 429.56
  Q 274.02 429.32 273.85 429.11
  Q 273.76 428.99 273.61 428.93
  Q 273.14 428.74 273.18 428.23
  Q 273.26 427.19 272.87 425.63
  Q 272.07 422.44 272.44 418.17
  Q 272.46 417.91 272.69 417.81
  Q 272.89 417.72 272.87 417.50
  Q 272.47 410.33 272.70 405.64
  Q 272.76 404.61 272.34 403.79
  Q 272.14 403.39 272.22 402.95
  Q 272.94 398.92 270.33 397.49
  Q 269.72 382.04 270.30 377.50
  C 271.18 370.52 271.35 363.23 272.70 356.55
  Q 273.61 352.04 274.64 347.55
  Q 285.51 300.05 319.67 265.41
  Z"
/>
<path fill="#b5342b" d="
  M 468.41 266.61
  Q 479.10 268.81 489.06 272.95
  C 490.09 273.38 491.16 273.57 492.08 274.00
  C 502.69 278.99 509.46 282.02 517.59 288.19
  Q 515.47 288.34 514.47 290.15
  Q 514.42 290.23 514.37 290.15
  L 514.28 290.00
  Q 514.22 289.90 514.12 289.93
  C 512.32 290.62 511.24 291.06 509.46 292.30
  C 507.90 293.39 505.66 293.81 504.27 294.32
  Q 498.71 296.35 492.53 295.03
  Q 492.25 294.97 492.12 294.68
  Q 492.05 294.52 491.87 294.49
  C 489.56 294.22 487.58 293.03 485.66 292.42
  Q 481.28 291.01 477.81 287.88
  Q 476.83 287.00 475.83 286.13
  C 474.41 284.89 473.91 283.35 472.87 281.83
  Q 472.05 280.62 471.61 279.54
  C 469.81 275.16 468.28 271.93 468.41 266.61
  Z"
/>
<path fill="#b5342b" d="
  M 525.45 270.18
  Q 533.57 275.71 540.87 282.53
  C 541.08 287.67 539.58 291.90 537.54 297.15
  Q 537.36 297.61 537.38 298.10
  Q 537.42 298.76 536.90 299.16
  Q 536.50 299.47 536.34 299.95
  Q 535.71 301.84 534.62 303.24
  L 527.62 296.43
  L 518.40 288.86
  Q 519.14 288.97 519.47 288.54
  C 520.79 286.82 521.59 286.21 522.32 283.73
  Q 524.65 275.84 525.45 270.18
  Z"
/>
<path fill="#761d16" d="
  M 540.87 282.53
  L 556.28 298.97
  L 560.06 303.97
  L 557.85 313.02
  A 3.39 1.21 -78.7 0 1 557.72 313.47
  L 555.25 320.50
  A 1.60 0.25 87.6 0 0 555.14 321.47
  Q 555.12 322.74 553.77 323.92
  Q 552.74 324.82 552.64 326.85
  Q 552.62 327.38 552.13 327.19
  L 551.78 327.05
  L 546.38 318.15
  L 541.19 311.20
  L 534.62 303.24
  Q 535.71 301.84 536.34 299.95
  Q 536.50 299.47 536.90 299.16
  Q 537.42 298.76 537.38 298.10
  Q 537.36 297.61 537.54 297.15
  C 539.58 291.90 541.08 287.67 540.87 282.53
  Z"
/>
<path fill="#6c46de" d="
  M 344.92 284.95
  Q 346.36 288.19 348.01 291.15
  Q 348.62 292.26 349.25 293.39
  Q 349.80 294.38 349.99 295.76
  Q 350.59 300.06 353.25 303.79
  Q 329.73 329.27 323.22 363.50
  C 321.87 370.59 321.51 381.04 321.51 389.86
  Q 321.51 463.43 321.52 537.00
  Q 321.52 544.14 321.89 551.30
  L 321.51 563.56
  Q 320.69 563.76 320.36 562.92
  Q 320.18 562.47 319.77 562.18
  Q 316.16 559.67 311.88 558.62
  C 310.40 558.26 308.61 556.51 306.78 556.31
  Q 306.02 556.23 305.19 556.07
  A 0.69 0.69 0.0 0 0 304.47 556.39
  Q 302.58 559.43 302.58 561.75
  Q 302.57 564.08 302.36 564.81
  L 302.07 557.65
  C 302.77 519.36 302.06 481.07 302.51 442.77
  C 302.54 440.14 302.08 437.41 301.83 434.74
  Q 301.47 430.85 297.74 428.60
  Q 298.13 424.62 298.50 415.52
  Q 298.65 411.95 300.70 409.33
  Q 301.59 409.76 302.03 409.46
  Q 302.35 409.24 302.34 408.45
  Q 302.05 378.69 303.05 370.00
  C 306.80 337.15 321.20 307.82 344.92 284.95
  Z"
/>
<path fill="#000000" d="
  M 561.59 286.14
  L 566.23 291.76
  Q 567.94 294.09 570.48 297.64
  C 583.98 316.46 593.26 336.64 596.54 359.59
  C 597.19 364.12 597.97 368.61 598.09 373.16
  C 598.34 382.65 597.84 392.31 598.55 401.75
  Q 598.79 405.00 598.84 408.26
  Q 588.23 407.83 580.46 412.52
  Q 579.89 412.35 580.20 411.47
  Q 580.36 411.02 580.79 410.67
  C 584.31 407.85 585.62 408.69 585.67 403.25
  Q 585.78 390.24 585.39 377.23
  Q 585.05 365.70 583.33 357.39
  Q 577.35 328.49 560.06 303.97
  L 556.28 298.97
  L 557.67 297.78
  A 0.76 0.76 0.0 0 0 557.89 296.98
  Q 557.13 294.70 557.14 292.29
  A 1.14 1.13 70.9 0 1 557.57 291.40
  Q 558.50 290.67 559.10 289.68
  Q 559.36 289.26 559.79 289.03
  Q 560.79 288.47 560.61 287.00
  Q 560.50 286.13 561.59 286.14
  Z"
/>
<path fill="#3f0c08" d="
  M 560.06 303.97
  Q 577.35 328.49 583.33 357.39
  Q 585.05 365.70 585.39 377.23
  Q 585.78 390.24 585.67 403.25
  C 585.62 408.69 584.31 407.85 580.79 410.67
  Q 580.36 411.02 580.20 411.47
  Q 579.89 412.35 580.46 412.52
  Q 579.97 413.04 579.11 413.45
  Q 572.66 418.23 568.74 426.09
  Q 569.01 424.83 568.84 423.74
  A 0.39 0.38 -20.5 0 0 568.26 423.48
  Q 567.91 423.69 567.36 423.65
  A 0.94 0.94 0.0 0 1 566.47 422.70
  Q 566.67 404.20 566.40 385.99
  Q 566.20 372.87 565.21 366.05
  Q 562.22 345.41 551.78 327.05
  L 552.13 327.19
  Q 552.62 327.38 552.64 326.85
  Q 552.74 324.82 553.77 323.92
  Q 555.12 322.74 555.14 321.47
  A 1.60 0.25 87.6 0 1 555.25 320.50
  L 557.72 313.47
  A 3.39 1.21 -78.7 0 0 557.85 313.02
  L 560.06 303.97
  Z"
/>
<path fill="#0abdd7" d="
  M 679.00 382.04
  C 680.01 386.47 678.09 389.71 675.82 393.33
  A 1.16 1.15 -82.9 0 1 675.21 393.81
  Q 673.90 394.27 672.80 395.14
  Q 672.43 395.43 671.96 395.53
  Q 666.54 396.72 662.51 394.10
  C 661.61 393.51 660.23 391.42 659.81 390.15
  Q 658.04 384.81 659.83 379.49
  Q 660.23 378.32 661.25 377.52
  C 662.13 376.83 662.96 376.08 664.09 375.92
  C 667.20 375.51 673.32 375.24 675.98 377.20
  Q 676.59 377.66 677.31 379.12
  C 677.83 380.17 678.75 380.92 679.00 382.04
  Z"
/>
<path fill="#5785dd" d="
  M 274.09 430.72
  C 272.16 433.78 271.99 438.35 271.99 441.50
  Q 272.02 501.79 271.96 562.08
  Q 271.96 562.13 271.93 562.20
  Q 271.90 562.25 271.87 562.31
  L 271.68 561.94
  A 0.56 0.56 0.0 0 0 270.74 561.85
  L 265.87 568.06
  Q 265.54 568.48 265.04 568.66
  C 262.46 569.61 259.32 574.92 257.41 577.15
  Q 257.17 577.44 257.16 577.82
  C 257.13 578.81 255.24 579.45 255.27 581.73
  L 254.54 580.55
  C 253.88 578.74 253.16 574.55 251.01 574.17
  Q 245.45 573.19 241.03 571.16
  Q 242.42 567.17 243.82 563.25
  C 244.54 561.25 244.37 559.04 245.07 556.87
  Q 245.23 556.38 245.10 555.89
  Q 244.65 554.16 245.25 552.46
  L 251.93 554.94
  A 0.40 0.40 0.0 0 0 252.46 554.65
  Q 252.73 553.49 252.73 552.25
  Q 252.89 503.39 252.70 454.14
  A 0.96 0.96 0.0 0 0 251.49 453.21
  Q 242.84 455.50 235.08 462.95
  L 233.41 450.23
  Q 233.40 450.13 233.50 450.12
  Q 233.62 450.10 233.75 450.02
  Q 233.80 449.98 233.78 449.93
  L 230.96 441.60
  Q 239.59 436.30 250.64 433.69
  C 253.32 433.06 254.32 428.22 255.24 426.00
  Q 257.71 420.05 262.33 415.68
  C 265.50 412.67 270.35 411.67 270.08 406.50
  Q 269.93 403.72 270.33 397.49
  Q 272.94 398.92 272.22 402.95
  Q 272.14 403.39 272.34 403.79
  Q 272.76 404.61 272.70 405.64
  Q 272.47 410.33 272.87 417.50
  Q 272.89 417.72 272.69 417.81
  Q 272.46 417.91 272.44 418.17
  Q 272.07 422.44 272.87 425.63
  Q 273.26 427.19 273.18 428.23
  Q 273.14 428.74 273.61 428.93
  Q 273.76 428.99 273.85 429.11
  Q 274.02 429.32 273.88 429.56
  Q 273.54 430.13 274.09 430.72
  Z"
/>
<path fill="#5785dd" d="
  M 598.84 408.26
  L 611.46 408.67
  Q 611.69 409.34 611.44 409.91
  Q 611.23 410.39 611.55 410.81
  Q 611.73 411.05 611.77 411.35
  Q 611.78 411.43 611.71 411.39
  L 611.45 411.25
  Q 611.27 411.16 611.23 411.36
  Q 610.92 412.89 611.35 414.38
  Q 611.66 414.64 611.44 414.97
  Q 611.27 415.22 611.26 415.53
  L 611.11 428.46
  C 606.47 426.77 599.77 427.19 595.25 427.54
  Q 588.92 428.03 586.64 434.00
  C 584.45 433.04 584.41 430.88 583.30 428.97
  Q 583.06 428.56 583.06 428.07
  Q 583.16 422.35 582.10 417.51
  Q 581.52 414.87 579.11 413.45
  Q 579.97 413.04 580.46 412.52
  Q 588.23 407.83 598.84 408.26
  Z"
/>
<path fill="#6c46de" d="
  M 611.46 408.67
  L 614.93 409.28
  Q 628.65 414.12 633.51 427.79
  C 634.46 430.48 635.04 432.86 637.71 433.53
  Q 641.50 434.50 644.47 435.62
  Q 643.39 440.76 644.21 446.01
  C 644.39 447.17 644.00 448.28 644.15 449.52
  Q 644.18 449.75 643.99 449.88
  Q 643.88 449.96 643.79 450.06
  Q 643.67 450.20 643.65 450.49
  Q 643.53 453.17 643.91 456.06
  L 637.93 453.53
  Q 636.36 452.86 635.83 454.49
  Q 635.60 455.17 635.60 456.75
  Q 635.45 500.00 635.58 543.25
  Q 635.60 548.72 635.79 553.95
  A 0.87 0.87 0.0 0 0 636.94 554.74
  L 641.31 553.21
  Q 642.53 559.94 641.83 566.66
  A 2.10 0.10 -85.3 0 1 641.67 567.90
  Q 641.13 570.54 641.81 573.29
  C 638.77 574.01 635.83 573.57 634.74 577.19
  C 631.53 587.91 625.07 595.59 613.96 598.82
  L 614.28 597.70
  Q 614.35 597.43 614.24 597.18
  Q 613.99 596.61 614.00 595.99
  C 614.13 591.40 614.45 586.54 613.90 581.98
  C 613.70 580.33 614.52 579.58 613.77 577.65
  Q 616.66 573.69 616.59 567.50
  Q 615.94 515.75 616.51 441.61
  C 616.55 436.68 616.04 431.42 611.11 428.46
  L 611.26 415.53
  Q 611.27 415.22 611.44 414.97
  Q 611.66 414.64 611.35 414.38
  Q 610.92 412.89 611.23 411.36
  Q 611.27 411.16 611.45 411.25
  L 611.71 411.39
  Q 611.78 411.43 611.77 411.35
  Q 611.73 411.05 611.55 410.81
  Q 611.23 410.39 611.44 409.91
  Q 611.69 409.34 611.46 408.67
  Z"
/>
<path fill="#0abdd7" d="
  M 579.11 413.45
  Q 581.52 414.87 582.10 417.51
  Q 583.16 422.35 583.06 428.07
  Q 583.06 428.56 583.30 428.97
  C 584.41 430.88 584.45 433.04 586.64 434.00
  Q 585.79 438.51 585.78 444.50
  Q 585.72 507.00 586.04 569.50
  Q 586.04 571.42 586.32 573.29
  Q 586.44 573.83 586.35 574.34
  Q 586.25 574.87 585.72 574.87
  L 585.00 574.87
  Q 584.51 574.87 584.37 575.33
  Q 581.42 584.82 580.61 595.64
  Q 566.32 586.12 566.30 570.75
  Q 566.26 517.50 566.19 464.25
  Q 566.17 452.50 566.49 440.75
  Q 566.72 431.93 568.74 426.09
  Q 572.66 418.23 579.11 413.45
  Z"
/>
<path fill="#000000" d="
  M 297.74 428.60
  Q 301.47 430.85 301.83 434.74
  C 302.08 437.41 302.54 440.14 302.51 442.77
  C 302.06 481.07 302.77 519.36 302.07 557.65
  Q 302.75 561.26 298.09 561.62
  Q 294.96 561.86 293.50 562.18
  Q 291.21 562.68 288.87 562.91
  Q 286.86 563.11 281.75 565.56
  Q 281.08 565.88 278.31 566.57
  Q 274.95 567.40 271.97 571.61
  L 271.87 562.31
  Q 271.90 562.25 271.93 562.20
  Q 271.96 562.13 271.96 562.08
  Q 272.02 501.79 271.99 441.50
  C 271.99 438.35 272.16 433.78 274.09 430.72
  C 278.75 425.57 291.06 426.95 297.74 428.60
  Z"
/>
<path fill="#000000" d="
  M 611.11 428.46
  C 616.04 431.42 616.55 436.68 616.51 441.61
  Q 615.94 515.75 616.59 567.50
  Q 616.66 573.69 613.77 577.65
  C 609.62 581.60 602.46 581.15 596.76 580.69
  Q 588.62 580.05 586.32 573.29
  Q 586.04 571.42 586.04 569.50
  Q 585.72 507.00 585.78 444.50
  Q 585.79 438.51 586.64 434.00
  Q 588.92 428.03 595.25 427.54
  C 599.77 427.19 606.47 426.77 611.11 428.46
  Z"
/>
<path fill="#b2529c" d="
  M 644.47 435.62
  L 655.79 440.68
  Q 656.31 442.11 656.04 443.23
  Q 655.94 443.65 656.06 444.07
  Q 656.52 445.64 655.97 447.72
  Q 655.38 449.98 655.56 456.73
  Q 655.57 456.75 655.90 460.75
  Q 656.11 463.26 655.74 465.91
  Q 650.61 459.75 643.91 456.06
  Q 643.53 453.17 643.65 450.49
  Q 643.67 450.20 643.79 450.06
  Q 643.88 449.96 643.99 449.88
  Q 644.18 449.75 644.15 449.52
  C 644.00 448.28 644.39 447.17 644.21 446.01
  Q 643.39 440.76 644.47 435.62
  Z"
/>
<path fill="#d65b78" d="
  M 655.79 440.68
  Q 684.34 459.16 683.82 493.51
  C 683.64 505.68 684.55 520.43 682.12 530.93
  Q 677.92 549.03 663.35 561.90
  C 663.14 557.91 663.09 554.38 663.51 550.50
  Q 663.62 549.43 663.49 548.50
  Q 662.88 544.10 661.85 538.63
  Q 661.72 537.93 661.36 538.55
  Q 661.33 538.61 661.34 538.84
  A 0.12 0.10 -51.7 0 1 661.12 538.88
  Q 661.11 538.55 661.05 538.23
  Q 660.97 537.74 660.53 537.52
  L 659.25 536.89
  Q 663.86 529.06 663.96 521.75
  Q 664.16 506.75 664.23 491.75
  Q 664.30 476.55 655.74 465.91
  Q 656.11 463.26 655.90 460.75
  Q 655.57 456.75 655.56 456.73
  Q 655.38 449.98 655.97 447.72
  Q 656.52 445.64 656.06 444.07
  Q 655.94 443.65 656.04 443.23
  Q 656.31 442.11 655.79 440.68
  Z"
/>
<path fill="#0abdd7" d="
  M 230.96 441.60
  L 233.78 449.93
  Q 233.80 449.98 233.75 450.02
  Q 233.62 450.10 233.50 450.12
  Q 233.40 450.13 233.41 450.23
  L 235.08 462.95
  Q 224.12 473.93 224.07 490.75
  Q 224.03 504.50 224.08 518.25
  C 224.12 532.99 232.23 545.72 245.25 552.46
  Q 244.65 554.16 245.10 555.89
  Q 245.23 556.38 245.07 556.87
  C 244.37 559.04 244.54 561.25 243.82 563.25
  Q 242.42 567.17 241.03 571.16
  C 217.28 562.10 204.69 540.57 204.37 515.75
  Q 204.20 502.62 204.60 489.50
  Q 205.31 466.11 221.05 449.56
  Q 225.01 445.40 230.96 441.60
  Z"
/>
<path fill="#000000" d="
  M 245.25 552.46
  C 232.23 545.72 224.12 532.99 224.08 518.25
  Q 224.03 504.50 224.07 490.75
  Q 224.12 473.93 235.08 462.95
  Q 242.84 455.50 251.49 453.21
  A 0.96 0.96 0.0 0 1 252.70 454.14
  Q 252.89 503.39 252.73 552.25
  Q 252.73 553.49 252.46 554.65
  A 0.40 0.40 0.0 0 1 251.93 554.94
  L 245.25 552.46
  Z"
/>
<path fill="#000000" d="
  M 643.91 456.06
  Q 650.61 459.75 655.74 465.91
  Q 664.30 476.55 664.23 491.75
  Q 664.16 506.75 663.96 521.75
  Q 663.86 529.06 659.25 536.89
  Q 652.77 548.09 641.31 553.21
  L 636.94 554.74
  A 0.87 0.87 0.0 0 1 635.79 553.95
  Q 635.60 548.72 635.58 543.25
  Q 635.45 500.00 635.60 456.75
  Q 635.60 455.17 635.83 454.49
  Q 636.36 452.86 637.93 453.53
  L 643.91 456.06
  Z"
/>
<path fill="#b2529c" d="
  M 659.25 536.89
  L 660.53 537.52
  Q 660.97 537.74 661.05 538.23
  Q 661.11 538.55 661.12 538.88
  A 0.12 0.10 -51.7 0 0 661.34 538.84
  Q 661.33 538.61 661.36 538.55
  Q 661.72 537.93 661.85 538.63
  Q 662.88 544.10 663.49 548.50
  Q 663.62 549.43 663.51 550.50
  C 663.09 554.38 663.14 557.91 663.35 561.90
  Q 653.73 569.63 641.81 573.29
  Q 641.13 570.54 641.67 567.90
  A 2.10 0.10 -85.3 0 0 641.83 566.66
  Q 642.53 559.94 641.31 553.21
  Q 652.77 548.09 659.25 536.89
  Z"
/>
<path fill="#170c42" d="
  M 321.89 551.30
  Q 321.84 553.04 322.48 554.74
  A 1.02 1.01 -2.2 0 0 323.15 555.35
  C 324.76 555.81 326.50 555.58 327.77 556.54
  Q 329.20 557.62 330.99 559.87
  Q 332.00 561.13 335.33 563.43
  Q 336.87 564.49 338.03 566.01
  Q 339.18 567.52 340.43 568.96
  Q 341.29 569.96 342.65 572.47
  C 343.61 574.23 345.20 575.27 345.98 577.04
  Q 348.95 583.75 349.63 588.00
  Q 350.62 594.24 349.36 603.18
  C 349.11 604.88 347.98 606.30 348.13 608.41
  Q 348.16 608.86 347.98 609.27
  C 347.55 610.27 347.46 611.44 347.02 612.33
  Q 344.45 617.62 341.44 622.67
  Q 341.12 623.21 341.01 623.91
  A 1.17 1.16 -16.6 0 1 340.61 624.64
  Q 338.72 626.32 337.86 628.71
  A 1.35 1.33 -8.2 0 1 337.39 629.33
  L 334.02 631.78
  A 1.01 0.98 -9.6 0 0 333.66 632.27
  Q 333.23 633.49 331.97 633.98
  A 1.60 1.58 -87.8 0 0 331.12 634.78
  Q 329.95 637.27 327.27 638.01
  Q 326.81 638.14 326.51 638.51
  Q 324.39 641.05 321.49 642.73
  A 2.37 2.26 -85.8 0 0 320.75 643.40
  Q 320.08 644.37 318.99 644.88
  Q 318.54 645.09 318.26 645.50
  Q 317.78 646.20 317.02 646.41
  A 1.92 1.83 15.0 0 0 316.25 646.83
  Q 313.92 648.90 311.06 648.28
  Q 310.59 648.18 310.17 648.40
  C 308.36 649.32 306.35 649.54 304.62 650.13
  Q 297.27 652.66 289.71 651.01
  C 287.15 650.45 284.51 649.07 281.83 647.98
  C 279.45 647.01 277.55 645.49 275.32 644.23
  C 272.38 642.59 269.79 640.70 266.95 639.02
  Q 265.76 638.31 264.24 636.72
  C 263.11 635.55 261.57 634.68 260.52 633.67
  Q 256.95 630.27 255.78 628.22
  Q 253.98 625.06 253.17 624.01
  C 252.95 623.74 252.87 623.44 252.88 623.13
  Q 252.89 622.83 252.74 622.56
  Q 249.01 615.81 248.89 611.74
  C 248.76 607.70 247.75 603.39 247.90 599.72
  Q 248.16 592.89 249.87 587.63
  Q 251.02 584.08 251.11 581.70
  Q 251.15 580.76 251.47 580.38
  Q 252.06 579.68 253.15 579.97
  Q 253.35 580.02 253.36 580.23
  Q 253.36 580.36 253.36 580.49
  Q 253.37 580.61 253.49 580.63
  Q 254.04 580.69 254.54 580.55
  L 255.27 581.73
  Q 256.95 586.18 260.52 590.15
  Q 257.77 602.68 261.57 614.38
  C 261.90 615.41 262.82 616.40 263.15 617.69
  C 263.95 620.85 266.17 623.74 268.06 626.34
  C 268.80 627.37 270.02 627.84 270.93 628.84
  C 272.34 630.38 273.91 631.30 275.10 632.90
  Q 275.36 633.24 276.13 633.41
  A 1.50 1.44 72.7 0 1 276.89 633.83
  Q 279.27 636.31 282.62 637.19
  A 0.68 0.63 81.6 0 1 283.03 637.52
  L 283.19 637.80
  A 0.77 0.75 81.3 0 0 283.71 638.19
  C 286.50 638.73 289.14 640.02 291.75 640.45
  Q 293.79 640.78 295.83 641.05
  Q 296.10 641.09 296.28 641.29
  Q 296.38 641.40 296.51 641.48
  Q 296.69 641.60 297.02 641.58
  C 302.25 641.38 307.71 641.48 312.73 640.50
  C 317.36 639.60 319.48 638.31 322.75 636.54
  Q 324.54 635.58 325.76 634.31
  C 327.86 632.12 330.28 630.11 331.67 627.37
  C 332.60 625.56 333.72 624.43 334.16 622.23
  Q 334.69 619.61 334.95 618.83
  Q 335.52 617.09 335.91 615.29
  C 336.56 612.29 338.06 609.37 338.39 606.51
  Q 339.14 599.97 337.63 592.44
  C 337.34 591.02 336.44 589.83 336.04 588.36
  C 335.23 585.34 333.75 582.99 332.27 580.58
  A 29.12 29.05 -82.3 0 0 328.58 575.73
  Q 328.50 575.65 326.75 572.50
  Q 326.43 571.93 325.64 571.52
  Q 325.24 571.32 325.04 570.92
  L 323.42 567.84
  Q 323.21 567.45 322.78 567.40
  Q 322.61 567.39 322.49 567.25
  Q 322.08 566.77 322.06 566.63
  L 321.62 563.87
  Q 321.45 564.18 321.51 563.56
  L 321.89 551.30
  Z"
/>
<path fill="#998bf5" d="
  M 321.51 563.56
  Q 321.45 564.18 321.62 563.87
  L 321.44 569.19
  Q 321.18 571.85 320.92 574.49
  C 320.18 581.92 316.40 588.57 310.84 593.48
  A 1.66 1.66 0.0 0 0 310.39 595.34
  Q 312.41 600.43 310.83 605.77
  Q 310.05 608.40 307.95 610.40
  Q 305.54 612.68 303.25 613.45
  Q 299.52 614.71 295.07 613.29
  C 292.65 612.52 290.65 610.63 288.67 608.97
  Q 288.31 608.67 288.15 608.23
  L 286.22 602.96
  Q 286.05 602.49 286.09 601.99
  Q 286.24 600.25 284.52 600.20
  Q 273.32 599.88 265.39 594.65
  L 260.52 590.15
  Q 256.95 586.18 255.27 581.73
  C 255.24 579.45 257.13 578.81 257.16 577.82
  Q 257.17 577.44 257.41 577.15
  C 259.32 574.92 262.46 569.61 265.04 568.66
  Q 265.54 568.48 265.87 568.06
  L 270.74 561.85
  A 0.56 0.56 0.0 0 1 271.68 561.94
  L 271.87 562.31
  L 271.97 571.61
  Q 272.07 576.33 276.17 578.92
  Q 278.88 580.64 283.71 580.73
  C 289.91 580.85 299.05 581.23 301.64 574.32
  C 302.63 571.67 302.24 567.90 302.36 564.81
  Q 302.57 564.08 302.58 561.75
  Q 302.58 559.43 304.47 556.39
  A 0.69 0.69 0.0 0 1 305.19 556.07
  Q 306.02 556.23 306.78 556.31
  C 308.61 556.51 310.40 558.26 311.88 558.62
  Q 316.16 559.67 319.77 562.18
  Q 320.18 562.47 320.36 562.92
  Q 320.69 563.76 321.51 563.56
  Z"
/>
<path fill="#311a73" d="
  M 302.07 557.65
  L 302.36 564.81
  C 302.24 567.90 302.63 571.67 301.64 574.32
  C 299.05 581.23 289.91 580.85 283.71 580.73
  Q 278.88 580.64 276.17 578.92
  Q 272.07 576.33 271.97 571.61
  Q 274.95 567.40 278.31 566.57
  Q 281.08 565.88 281.75 565.56
  Q 286.86 563.11 288.87 562.91
  Q 291.21 562.68 293.50 562.18
  Q 294.96 561.86 298.09 561.62
  Q 302.75 561.26 302.07 557.65
  Z"
/>
<path fill="#311a73" d="
  M 321.62 563.87
  L 322.06 566.63
  Q 322.08 566.77 322.49 567.25
  Q 322.61 567.39 322.78 567.40
  Q 323.21 567.45 323.42 567.84
  L 325.04 570.92
  Q 325.24 571.32 325.64 571.52
  Q 326.43 571.93 326.75 572.50
  Q 328.50 575.65 328.58 575.73
  A 29.12 29.05 -82.3 0 1 332.27 580.58
  C 333.75 582.99 335.23 585.34 336.04 588.36
  C 336.44 589.83 337.34 591.02 337.63 592.44
  Q 339.14 599.97 338.39 606.51
  C 338.06 609.37 336.56 612.29 335.91 615.29
  Q 335.52 617.09 334.95 618.83
  Q 334.69 619.61 334.16 622.23
  C 333.72 624.43 332.60 625.56 331.67 627.37
  C 330.28 630.11 327.86 632.12 325.76 634.31
  Q 324.54 635.58 322.75 636.54
  C 319.48 638.31 317.36 639.60 312.73 640.50
  C 307.71 641.48 302.25 641.38 297.02 641.58
  Q 296.69 641.60 296.51 641.48
  Q 296.38 641.40 296.28 641.29
  Q 296.10 641.09 295.83 641.05
  Q 293.79 640.78 291.75 640.45
  C 289.14 640.02 286.50 638.73 283.71 638.19
  A 0.77 0.75 81.3 0 1 283.19 637.80
  L 283.03 637.52
  A 0.68 0.63 81.6 0 0 282.62 637.19
  Q 279.27 636.31 276.89 633.83
  A 1.50 1.44 72.7 0 0 276.13 633.41
  Q 275.36 633.24 275.10 632.90
  C 273.91 631.30 272.34 630.38 270.93 628.84
  C 270.02 627.84 268.80 627.37 268.06 626.34
  C 266.17 623.74 263.95 620.85 263.15 617.69
  C 262.82 616.40 261.90 615.41 261.57 614.38
  Q 257.77 602.68 260.52 590.15
  L 265.39 594.65
  Q 265.27 603.73 266.63 609.25
  Q 267.11 611.22 269.69 616.61
  C 270.11 617.50 271.09 618.13 271.37 618.88
  Q 272.74 622.52 275.75 625.01
  Q 275.91 625.14 275.90 625.44
  Q 275.90 625.80 276.17 626.04
  Q 278.70 628.23 281.75 629.63
  Q 282.02 629.75 282.18 630.15
  Q 282.38 630.64 282.87 630.83
  L 285.69 631.95
  Q 286.08 632.11 286.49 632.12
  Q 287.48 632.14 288.10 632.88
  A 1.33 1.32 -15.4 0 0 288.88 633.32
  C 295.46 634.54 301.49 635.84 307.99 633.25
  Q 309.59 632.61 310.83 632.38
  Q 311.26 632.31 311.65 632.11
  C 312.84 631.49 314.28 631.41 315.29 630.92
  C 319.50 628.87 322.17 626.54 325.21 622.79
  Q 326.53 621.17 327.26 618.81
  Q 327.92 616.66 328.71 614.56
  Q 328.88 614.10 328.84 613.62
  Q 328.81 613.18 329.00 612.87
  Q 329.50 612.05 329.51 612.03
  Q 331.31 606.50 331.40 600.71
  C 331.46 597.63 330.66 594.22 330.18 590.98
  A 0.52 0.50 -85.3 0 0 329.85 590.58
  Q 329.63 590.50 329.57 590.28
  C 328.96 588.00 327.67 586.33 326.80 584.34
  Q 325.88 582.24 324.24 580.60
  C 323.34 579.70 322.94 578.55 322.11 577.58
  Q 321.79 577.21 321.77 576.71
  L 321.44 569.19
  L 321.62 563.87
  Z"
/>
<path fill="#4e339c" d="
  M 321.44 569.19
  L 321.77 576.71
  Q 321.79 577.21 322.11 577.58
  C 322.94 578.55 323.34 579.70 324.24 580.60
  Q 325.88 582.24 326.80 584.34
  C 327.67 586.33 328.96 588.00 329.57 590.28
  Q 329.63 590.50 329.85 590.58
  A 0.52 0.50 -85.3 0 1 330.18 590.98
  C 330.66 594.22 331.46 597.63 331.40 600.71
  Q 331.31 606.50 329.51 612.03
  Q 329.50 612.05 329.00 612.87
  Q 328.81 613.18 328.84 613.62
  Q 328.88 614.10 328.71 614.56
  Q 327.92 616.66 327.26 618.81
  Q 326.53 621.17 325.21 622.79
  C 322.17 626.54 319.50 628.87 315.29 630.92
  C 314.28 631.41 312.84 631.49 311.65 632.11
  Q 311.26 632.31 310.83 632.38
  Q 309.59 632.61 307.99 633.25
  C 301.49 635.84 295.46 634.54 288.88 633.32
  A 1.33 1.32 -15.4 0 1 288.10 632.88
  Q 287.48 632.14 286.49 632.12
  Q 286.08 632.11 285.69 631.95
  L 282.87 630.83
  Q 282.38 630.64 282.18 630.15
  Q 282.02 629.75 281.75 629.63
  Q 278.70 628.23 276.17 626.04
  Q 275.90 625.80 275.90 625.44
  Q 275.91 625.14 275.75 625.01
  Q 272.74 622.52 271.37 618.88
  C 271.09 618.13 270.11 617.50 269.69 616.61
  Q 267.11 611.22 266.63 609.25
  Q 265.27 603.73 265.39 594.65
  Q 273.32 599.88 284.52 600.20
  Q 286.24 600.25 286.09 601.99
  Q 286.05 602.49 286.22 602.96
  L 288.15 608.23
  Q 288.31 608.67 288.67 608.97
  C 290.65 610.63 292.65 612.52 295.07 613.29
  Q 299.52 614.71 303.25 613.45
  Q 305.54 612.68 307.95 610.40
  Q 310.05 608.40 310.83 605.77
  Q 312.41 600.43 310.39 595.34
  A 1.66 1.66 0.0 0 1 310.84 593.48
  C 316.40 588.57 320.18 581.92 320.92 574.49
  Q 321.18 571.85 321.44 569.19
  Z"
/>
<path fill="#5785dd" d="
  M 586.32 573.29
  Q 588.62 580.05 596.76 580.69
  C 602.46 581.15 609.62 581.60 613.77 577.65
  C 614.52 579.58 613.70 580.33 613.90 581.98
  C 614.45 586.54 614.13 591.40 614.00 595.99
  Q 613.99 596.61 614.24 597.18
  Q 614.35 597.43 614.28 597.70
  L 613.96 598.82
  Q 600.20 601.84 587.50 598.54
  Q 584.18 597.67 580.61 595.64
  Q 581.42 584.82 584.37 575.33
  Q 584.51 574.87 585.00 574.87
  L 585.72 574.87
  Q 586.25 574.87 586.35 574.34
  Q 586.44 573.83 586.32 573.29
  Z"
/>
</svg>
